<ttFont>
          <CharString index="0">
            26 6 -6 -26 hvcurveto
            -131 vlineto
            -26 -7 -7 -25 vhcurveto
            -52 105 -105 callsubr
            165 return
          </CharString>
          <CharString index="1">
            -103 callgsubr
            -59 hlineto
            -78 -28 -29 -62 hvcurveto
            return
          </CharString>
          <CharString index="2">
            -113 -366 -104 callgsubr
            return
          </CharString>
          <CharString index="3">
            -83 228 hlineto
            -107 callsubr
            return
          </CharString>
          <CharString index="4">
            -61 29 callgsubr
            98 hlineto
            77 -97 callsubr
            -21 -7 5 22 hvcurveto
            return
          </CharString>
          <CharString index="5">
            -101 callgsubr
            114 return
          </CharString>
          <CharString index="6">
            -3 callgsubr
            -186 393 callsubr
            -23 -78 59 hlineto
            77 28 445 callgsubr
            -34 29 -67 vhcurveto
            -63 hlineto
            -20 -13 429 callgsubr
          </CharString>
          <CharString index="7">
            rmoveto
            -23 -7 -5 -21 vhcurveto
            -24 -88 callsubr
            181 317 callgsubr
            return
          </CharString>
          <CharString index="8">
            -56 callsubr
            258 239 callgsubr
            return
          </CharString>
          <CharString index="9">
            -6 -102 callgsubr
            return
          </CharString>
          <CharString index="10">
            -69 callgsubr
            -6 -5 -19 vhcurveto
            -30 hlineto
            return
          </CharString>
          <CharString index="11">
            257 -102 447 callsubr
            -173 vlineto
            -70 285 callsubr
            70 hvcurveto
            370 return
          </CharString>
          <CharString index="12">
            -85 callsubr
            -90 return
          </CharString>
          <CharString index="13">
            -275 -130 hlineto
            360 callsubr
            130 vlineto
            62 -28 34 -78 vhcurveto
            -100 220 callsubr
            -85 114 72 -92 callgsubr
            30 42 callgsubr
            -99 vlineto
            334 callsubr
            -52 -82 52 hlineto
            22 8 -7 -23 hvcurveto
            -96 -4 callgsubr
            -30 hlineto
            -21 -6 5 21 hvcurveto
            77 -114 -90 vlineto
            -62 28 -34 78 vhcurveto
            100 hlineto
            242 callgsubr
            100 89 -274 402 callsubr
            return
          </CharString>
          <CharString index="14">
            rmoveto
            94 -42 callgsubr
            48 -73 callgsubr
            -94 vlineto
            -105 205 rmoveto
            -76 -33 112 callgsubr
            33 -36 76 vhcurveto
            104 -21 callsubr
            50 -110 -37 vlineto
            -32 callgsubr
            -46 38 callgsubr
            101 213 179 vlineto
            63 -32 436 callsubr
          </CharString>
          <CharString index="15">
            vlineto
            -76 callsubr
            return
          </CharString>
          <CharString index="16">
            114 174 callgsubr
          </CharString>
          <CharString index="17">
            -83 206 hlineto
            26 6 -6 -26 hvcurveto
            -162 434 callgsubr
            -28 335 callgsubr
            -376 hlineto
            162 callsubr
            251 84 -229 -23 callsubr
            return
          </CharString>
          <CharString index="18">
            -21 -100 callgsubr
            return
          </CharString>
          <CharString index="19">
            hlineto
            -75 callgsubr
            return
          </CharString>
          <CharString index="20">
            -34 callgsubr
            -113 -301 -41 callgsubr
            return
          </CharString>
          <CharString index="21">
            156 callgsubr
            -46 -30 callsubr
            267 86 callsubr
            46 136 callgsubr
            -108 112 rmoveto
            -77 -30 112 callgsubr
            30 306 callsubr
            76 30 36 63 hvcurveto
            293 vlineto
            63 -30 436 callsubr
          </CharString>
          <CharString index="22">
            -63 callsubr
            8 hvcurveto
            return
          </CharString>
          <CharString index="23">
            rmoveto
            371 callsubr
            -42 298 callsubr
            22 hvcurveto
            118 19 callgsubr
            return
          </CharString>
          <CharString index="24">
            26 6 -55 callgsubr
            -25 vhcurveto
            -52 return
          </CharString>
          <CharString index="25">
            -61 28 -57 callgsubr
            -30 hlineto
            -22 241 callgsubr
            return
          </CharString>
          <CharString index="26">
            7 -99 callgsubr
            return
          </CharString>
          <CharString index="27">
            -89 callgsubr
            -103 hlineto
            return
          </CharString>
          <CharString index="28">
            -65 callgsubr
            -29 -71 hvcurveto
            return
          </CharString>
          <CharString index="29">
            rmoveto
            -32 callgsubr
            -38 -30 callsubr
            71 -115 -87 -36 callgsubr
            108 -21 callsubr
            165 vlineto
            63 -30 35 -75 vhcurveto
            -79 -30 callsubr
            127 86 callsubr
            38 -73 callgsubr
            -72 116 88 324 callsubr
            -76 vhcurveto
            -110 hlineto
            -77 400 callgsubr
            -155 vlineto
            -63 28 -37 75 vhcurveto
            81 -73 callgsubr
            return
          </CharString>
          <CharString index="30">
            9 10 5 15 20 vvcurveto
            125 286 callsubr
            return
          </CharString>
          <CharString index="31">
            21 -81 callsubr
            return
          </CharString>
          <CharString index="32">
            rmoveto
            -21 -6 -6 -23 vhcurveto
            -20 -36 callsubr
            36 -111 -45 -36 callgsubr
            81 hlineto
            76 33 36 63 hvcurveto
            87 vlineto
            62 -31 36 -77 vhcurveto
            -54 -30 callsubr
            72 vlineto
            21 7 227 callgsubr
            109 46 324 callsubr
            -76 vhcurveto
            -79 157 callsubr
            -90 vlineto
            -62 30 -36 77 vhcurveto
            54 hlineto
            23 6 -6 -21 hvcurveto
            return
          </CharString>
          <CharString index="33">
            vlineto
            -53 callgsubr
            return
          </CharString>
          <CharString index="34">
            -26 -51 callgsubr
            return
          </CharString>
          <CharString index="35">
            -29 -62 hvcurveto
            return
          </CharString>
          <CharString index="36">
            44 callsubr
            -50 callsubr
            return
          </CharString>
          <CharString index="37">
            5 6 3 9 11 vvcurveto
            148 vlineto
            70 436 callgsubr
            -84 hlineto
            372 callgsubr
            -139 vlineto
            -17 4 -12 9 -8 vhcurveto
            -43 -9 -21 -33 -50 vvcurveto
            -132 vlineto
            -62 33 -30 58 vhcurveto
            114 hlineto
            22 14 4 11 8 hvcurveto
            -86 114 237 -114 -51 vlineto
            -25 -10 -8 -24 vhcurveto
            -73 hlineto
            -22 284 callsubr
            22 vhcurveto
            return
          </CharString>
          <CharString index="38">
            -24 -10 -8 -23 vhcurveto
            -30 hlineto
            -21 -7 5 23 hvcurveto
            155 vlineto
            21 7 5 21 vhcurveto
            28 78 -61 199 callgsubr
            return
          </CharString>
          <CharString index="39">
            -92 callgsubr
            9 -16 callsubr
            -41 69 59 196 callgsubr
            -43 hlineto
            -69 -33 -72 callsubr
            return
          </CharString>
          <CharString index="40">
            -548 -93 callgsubr
            return
          </CharString>
          <CharString index="41">
            rmoveto
            -370 196 callsubr
            229 callsubr
            376 -113 -392 366 callsubr
            437 callgsubr
          </CharString>
          <CharString index="42">
            -83 callgsubr
            258 -54 callgsubr
            return
          </CharString>
          <CharString index="43">
            hlineto
            18 -40 callgsubr
          </CharString>
          <CharString index="44">
            62 hlineto
            20 13 4 8 return
          </CharString>
          <CharString index="45">
            hlineto
            19 -61 callgsubr
            return
          </CharString>
          <CharString index="46">
            32 465 callsubr
            61 454 callgsubr
            62 -33 29 -68 -63 callgsubr
            -126 220 callgsubr
            -110 return
          </CharString>
          <CharString index="47">
            23 -97 callgsubr
            return
          </CharString>
          <CharString index="48">
            183 callsubr
            119 vlineto
            15 -4 11 return
          </CharString>
          <CharString index="49">
            62 -29 34 -77 vhcurveto
            -98 390 callgsubr
            114 43 -92 callgsubr
            28 -16 callsubr
            return
          </CharString>
          <CharString index="50">
            -72 callgsubr
            -6 5 23 hvcurveto
            return
          </CharString>
          <CharString index="51">
            hlineto
            -21 212 callsubr
            return
          </CharString>
          <CharString index="52">
            -59 vlineto
            -62 29 callgsubr
            72 42 callgsubr
            -63 -4 callgsubr
            -63 57 -114 -206 114 71 98 hlineto
            78 28 153 callsubr
            return
          </CharString>
          <CharString index="53">
            -68 callgsubr
            31 hlineto
            23 return
          </CharString>
          <CharString index="54">
            40 callgsubr
            78 26 34 62 hvcurveto
            67 135 callgsubr
            -398 -114 rmoveto
            114 168 236 callsubr
            -295 -245 77 callsubr
            return
          </CharString>
          <CharString index="55">
            -58 callgsubr
            -42 return
          </CharString>
          <CharString index="56">
            157 callgsubr
            114 -113 -103 vlineto
            -23 -8 -5 -21 vhcurveto
            -27 -65 callsubr
            return
          </CharString>
          <CharString index="57">
            -146 -37 callsubr
            return
          </CharString>
          <CharString index="58">
            1 callgsubr
            -21 vhcurveto
            return
          </CharString>
          <CharString index="59">
            -59 -96 callgsubr
            return
          </CharString>
          <CharString index="60">
            -73 callsubr
            -120 -33 callgsubr
            -56 callgsubr
            return
          </CharString>
          <CharString index="61">
            rmoveto
            -516 vlineto
            115 callgsubr
            -53 -36 callsubr
            516 -115 -532 -36 callgsubr
            79 callsubr
            532 vlineto
            endchar
          </CharString>
          <CharString index="62">
            -102 callgsubr
            110 20 vlineto
            78 -59 callsubr
            -7 8 vhcurveto
            return
          </CharString>
          <CharString index="63">
            61 -28 34 -77 vhcurveto
            -129 -82 93 hlineto
            22 6 -5 -22 hvcurveto
            -181 vlineto
            166 callgsubr
            73 -113 -84 vlineto
            -70 32 460 callsubr
            return
          </CharString>
          <CharString index="64">
            20 -41 callsubr
            return
          </CharString>
          <CharString index="65">
            -94 callgsubr
            155 vlineto
            71 -9 50 0 vhcurveto
            0 17 -48 32 -61 vhcurveto
            return
          </CharString>
          <CharString index="66">
            vlineto
            77 -59 callsubr
            -6 8 vhcurveto
            return
          </CharString>
          <CharString index="67">
            195 callsubr
            -78 vhcurveto
            -57 hlineto
            -21 -6 5 21 hvcurveto
            50 -92 callgsubr
            return
          </CharString>
          <CharString index="68">
            -116 -98 hlineto
            -71 callsubr
            return
          </CharString>
          <CharString index="69">
            -16 callgsubr
            -78 -28 -29 -62 hvcurveto
            return
          </CharString>
          <CharString index="70">
            vlineto
            -35 callsubr
            return
          </CharString>
          <CharString index="71">
            hlineto
            -38 callgsubr
            return
          </CharString>
          <CharString index="72">
            -19 callgsubr
            154 return
          </CharString>
          <CharString index="73">
            rmoveto
            110 vlineto
            63 -33 36 -76 vhcurveto
            -117 hlineto
            346 callsubr
            -434 vlineto
            -62 33 -37 76 464 callgsubr
            76 33 37 62 hvcurveto
            108 -116 -96 vlineto
            -32 callgsubr
            -47 -36 callsubr
            410 -42 callgsubr
            47 -73 callgsubr
            -98 vlineto
            endchar
          </CharString>
          <CharString index="74">
            62 hlineto
            20 14 180 callsubr
            return
          </CharString>
          <CharString index="75">
            vlineto
            -70 -2 callsubr
            -33 callsubr
            -91 113 return
          </CharString>
          <CharString index="76">
            30 70 hvcurveto
            return
          </CharString>
          <CharString index="77">
            hlineto
            -22 -7 31 callsubr
            return
          </CharString>
          <CharString index="78">
            -28 callsubr
            113 return
          </CharString>
          <CharString index="79">
            13 242 callsubr
            return
          </CharString>
          <CharString index="80">
            rmoveto
            -84 116 84 hlineto
            -198 105 callsubr
            379 282 rmoveto
            -1180 -90 callsubr
            456 -116 -98 241 callsubr
            -131 vlineto
            -25 -10 -7 383 callsubr
            22 hvcurveto
            170 -47 callgsubr
            -193 vlineto
            320 callgsubr
            65 hlineto
            29 20 8 18 10 hvcurveto
            -18 18 30 -8 43 hhcurveto
            12 callgsubr
            154 84 461 callsubr
          </CharString>
          <CharString index="81">
            -83 261 -39 callsubr
            return
          </CharString>
          <CharString index="82">
            rmoveto
            315 callsubr
            98 callgsubr
            return
          </CharString>
          <CharString index="83">
            33 -31 callsubr
            return
          </CharString>
          <CharString index="84">
            360 callgsubr
            122 66 vlineto
            -44 callgsubr
            return
          </CharString>
          <CharString index="85">
            rmoveto
            259 callgsubr
            return
          </CharString>
          <CharString index="86">
            hlineto
            -24 callgsubr
            return
          </CharString>
          <CharString index="87">
            -83 259 -332 vlineto
            450 callsubr
            254 callgsubr
            161 279 callsubr
            -184 321 callgsubr
            return
          </CharString>
          <CharString index="88">
            hlineto
            -70 37 -30 78 10 callsubr
          </CharString>
          <CharString index="89">
            10 hlineto
            65 19 31 51 hvcurveto
            35 -94 -20 vlineto
            -18 -5 -5 -13 vhcurveto
            -23 -33 43 -49 hhcurveto
            -12 hlineto
            -64 -20 -33 -52 hvcurveto
            -32 94 return
          </CharString>
          <CharString index="90">
            hlineto
            35 callsubr
            return
          </CharString>
          <CharString index="91">
            hlineto
            3 callgsubr
            return
          </CharString>
          <CharString index="92">
            432 rmoveto
            -97 116 97 hlineto
            -211 -343 -84 callsubr
            return
          </CharString>
          <CharString index="93">
            rmoveto
            18 4 6 21 vhcurveto
            34 hlineto
            21 4 -6 -18 hvcurveto
            -9 vlineto
            -18 -4 -5 -21 vhcurveto
            -34 hlineto
            -21 -4 5 18 hvcurveto
            78 -79 rmoveto
            58 23 26 49 hvcurveto
            17 vlineto
            49 -23 27 -58 vhcurveto
            -72 hlineto
            -58 -23 -27 -49 hvcurveto
            -17 vlineto
            -49 23 -26 58 vhcurveto
            return
          </CharString>
          <CharString index="94">
            rmoveto
            -37 -25 -15 -30 -9 hvcurveto
            45 431 callgsubr
            370 vlineto
            24 10 9 21 vhcurveto
            30 -73 callgsubr
            -376 114 392 275 callsubr
          </CharString>
          <CharString index="95">
            -359 -100 callsubr
            return
          </CharString>
          <CharString index="96">
            -5 callgsubr
            -100 return
          </CharString>
          <CharString index="97">
            26 6 -6 -26 hvcurveto
            -170 135 callsubr
            -28 158 -114 -376 hlineto
            162 callsubr
            230 84 -208 360 callgsubr
            114 66 vlineto
            76 32 28 66 hvcurveto
            197 11 callsubr
            return
          </CharString>
          <CharString index="98">
            -70 5 callsubr
            return
          </CharString>
          <CharString index="99">
            36 -11 callsubr
            return
          </CharString>
          <CharString index="100">
            -77 -32 112 callgsubr
            32 -36 77 vhcurveto
            98 -21 callsubr
            67 -111 -51 vlineto
            -32 callgsubr
            -36 171 callsubr
            36 318 callsubr
            return
          </CharString>
          <CharString index="101">
            -70 32 -30 83 vhcurveto
            77 432 callgsubr
            173 81 -173 vlineto
            -70 37 -30 78 vhcurveto
            163 -64 callsubr
          </CharString>
          <CharString index="102">
            22 callsubr
            -91 113 return
          </CharString>
          <CharString index="103">
            -73 callsubr
            -119 -83 callgsubr
            87 vlineto
            22 -81 callsubr
            68 83 -68 -83 callgsubr
            113 -92 callsubr
            8 hlineto
            22 161 callgsubr
            -41 69 59 vlineto
            62 -33 29 -69 vhcurveto
            -43 hlineto
            -69 -32 384 callgsubr
            15 316 callgsubr
            -15 -15 -32 vvcurveto
            return
          </CharString>
          <CharString index="104">
            361 callgsubr
            71 vhcurveto
            31 hlineto
            return
          </CharString>
          <CharString index="105">
            35 -30 67 vhcurveto
            return
          </CharString>
          <CharString index="106">
            rmoveto
            -23 -7 -5 -21 vhcurveto
            -45 -65 callsubr
            45 195 callgsubr
            178 179 rmoveto
            83 -461 -83 176 -69 vlineto
            333 callsubr
            return
          </CharString>
          <CharString index="107">
            vlineto
            -33 16 345 callgsubr
            return
          </CharString>
          <CharString index="108">
            -6 31 callsubr
            return
          </CharString>
          <CharString index="109">
            283 547 rmoveto
            54 -25 30 -64 vhcurveto
            -77 hlineto
            -63 -26 -30 -54 hvcurveto
            -184 vlineto
            -53 26 -30 63 vhcurveto
            77 hlineto
            64 25 30 53 hvcurveto
            405 -96 rmoveto
            55 -26 29 -63 vhcurveto
            -77 hlineto
            -64 -25 -29 -55 hvcurveto
            -183 vlineto
            -54 25 -30 64 vhcurveto
            77 hlineto
            63 26 30 54 hvcurveto
            -498 293 rmoveto
            -19 -4 -5 -20 vhcurveto
            -20 hlineto
            -20 -5 5 19 hvcurveto
            156 vlineto
            19 5 6 20 vhcurveto
            20 hlineto
            20 4 -6 -19 hvcurveto
            405 -435 rmoveto
            -20 -5 -5 -20 vhcurveto
            -20 hlineto
            -20 -4 5 20 hvcurveto
            155 vlineto
            20 4 5 20 vhcurveto
            20 hlineto
            20 5 -5 -20 hvcurveto
            -126 378 rmoveto
            -311 -631 rlineto
            89 hlineto
            312 631 rlineto
            return
          </CharString>
          <CharString index="110">
            62 callsubr
            -37 113 47 306 callgsubr
            -71 hlineto
            -21 -6 6 20 hvcurveto
            30 vlineto
            20 6 6 21 vhcurveto
            return
          </CharString>
          <CharString index="111">
            vlineto
            12 callsubr
            return
          </CharString>
          <CharString index="112">
            33 -30 82 vhcurveto
            return
          </CharString>
          <CharString index="113">
            rmoveto
            95 5 callgsubr
            -117 hlineto
            346 callsubr
            -434 vlineto
            -62 33 -37 76 464 callgsubr
            451 callsubr
            233 -166 -81 50 -140 vlineto
            -32 callgsubr
            -47 -36 callsubr
            410 -42 callgsubr
            47 -73 callgsubr
            -83 vlineto
            endchar
          </CharString>
          <CharString index="114">
            337 -39 callgsubr
            return
          </CharString>
          <CharString index="115">
            190 363 callgsubr
            return
          </CharString>
          <CharString index="116" raw="1">
            6a9bf847 0a0b  
          </CharString>
          <CharString index="117">
            vhcurveto
            459 callgsubr
            -91 callsubr
          </CharString>
          <CharString index="118">
            vlineto
            12 -3 8 -4 6 vhcurveto
            return
          </CharString>
          <CharString index="119">
            22 -97 callgsubr
            return
          </CharString>
          <CharString index="120">
            -83 248 -69 -89 312 callsubr
            75 hlineto
            22 161 callgsubr
            -63 357 callsubr
            -60 57 -114 -206 114 71 95 309 callgsubr
            89 433 callsubr
            -75 432 callsubr
            33 -92 callsubr
            return
          </CharString>
          <CharString index="121">
            -73 callsubr
            -143 -83 callgsubr
            139 32 vlineto
            242 callgsubr
            121 vlineto
            62 -32 29 -69 -63 callgsubr
            -90 -4 callgsubr
            -198 hlineto
            -79 callsubr
            -220 vlineto
            -61 28 -30 77 vhcurveto
            92 84 -57 -56 callsubr
            190 4 callsubr
            31 hlineto
            23 5 -6 -21 hvcurveto
            -121 113 121 vlineto
            21 5 6 23 vhcurveto
            56 -150 hlineto
            -23 callgsubr
            return
          </CharString>
          <CharString index="122">
            rmoveto
            53 -77 423 callsubr
            -106 137 rlineto
            -117 hlineto
            -106 -137 423 callsubr
            return
          </CharString>
          <CharString index="123">
            404 callsubr
            81 -51 callsubr
            return
          </CharString>
          <CharString index="124">
            51 callsubr
            -32 vvcurveto
            return
          </CharString>
          <CharString index="125">
            vlineto
            -70 32 -30 83 vhcurveto
            88 157 callgsubr
            return
          </CharString>
          <CharString index="126">
            -228 -82 callgsubr
            80 -306 hlineto
            290 callgsubr
            -7 5 22 hvcurveto
            return
          </CharString>
          <CharString index="127">
            -3 callsubr
            38 25 16 33 8 hvcurveto
            -49 return
          </CharString>
          <CharString index="128">
            32 -30 83 vhcurveto
            return
          </CharString>
          <CharString index="129">
            -83 64 26 callsubr
            return
          </CharString>
          <CharString index="130">
            -30 78 vhcurveto
            return
          </CharString>
          <CharString index="131">
            rmoveto
            -777 244 callgsubr
            84 -157 59 callsubr
            -328 hlineto
            -24 -10 -8 -23 vhcurveto
            -30 hlineto
            47 callgsubr
            113 171 rlineto
            -117 111 -10 callgsubr
          </CharString>
          <CharString index="132">
            262 callgsubr
            -158 20 callgsubr
            return
          </CharString>
          <CharString index="133">
            27 callsubr
            -33 callsubr
            return
          </CharString>
          <CharString index="134">
            269 callgsubr
            -2 callsubr
            return
          </CharString>
          <CharString index="135">
            98 hlineto
            78 14 callgsubr
            return
          </CharString>
          <CharString index="136">
            8 7 21 vhcurveto
            return
          </CharString>
          <CharString index="137">
            9 10 5 14 20 vvcurveto
            122 vlineto
            68 -31 32 -84 vhcurveto
            -71 hlineto
            -84 -31 -32 -68 hvcurveto
            -144 vlineto
            -65 29 -32 77 -3 vhcurveto
            -148 -139 rlineto
            133 hlineto
            147 139 rlineto
            return
          </CharString>
          <CharString index="138">
            6 21 hvcurveto
            return
          </CharString>
          <CharString index="139">
            6 6 22 vhcurveto
            return
          </CharString>
          <CharString index="140">
            30 61 hvcurveto
            return
          </CharString>
          <CharString index="141">
            -64 29 -30 55 308 callsubr
            122 hlineto
            103 410 callgsubr
          </CharString>
          <CharString index="142">
            -98 callgsubr
            -210 118 callgsubr
            return
          </CharString>
          <CharString index="143">
            rlineto
            11 callgsubr
            return
          </CharString>
          <CharString index="144" raw="1">
            de1ee306 ddac0b  
          </CharString>
          <CharString index="145">
            63 180 callgsubr
            return
          </CharString>
          <CharString index="146">
            vlineto
            -6 callsubr
          </CharString>
          <CharString index="147">
            -69 -69 vlineto
            268 callsubr
            -76 vlineto
            -62 28 -29 77 vhcurveto
            57 42 callgsubr
            -90 220 callgsubr
            -34 hlineto
            -18 107 callsubr
            return
          </CharString>
          <CharString index="148">
            25 callsubr
            -159 vlineto
            -23 callgsubr
            return
          </CharString>
          <CharString index="149">
            -358 hlineto
            259 callgsubr
            181 130 callgsubr
            return
          </CharString>
          <CharString index="150">
            vhcurveto
            -30 -83 callgsubr
            return
          </CharString>
          <CharString index="151">
            -78 197 callgsubr
            return
          </CharString>
          <CharString index="152">
            -24 callsubr
            219 75 69 callsubr
          </CharString>
          <CharString index="153">
            357 callgsubr
            -98 hlineto
            -77 -28 -34 -62 hvcurveto
            -56 113 43 -92 callgsubr
            28 -16 callsubr
            return
          </CharString>
          <CharString index="154">
            479 rmoveto
            -269 hlineto
            -20 -13 208 callsubr
            81 310 vlineto
            -488 -387 -25 callsubr
            634 470 rmoveto
            -875 -5 callsubr
            27 callgsubr
            60 -9 hlineto
            217 callsubr
          </CharString>
          <CharString index="155">
            rmoveto
            83 -73 callgsubr
            -158 vlineto
            -32 callgsubr
            -83 hlineto
            134 -331 rmoveto
            124 hlineto
            -105 249 rlineto
            51 10 22 34 52 vvcurveto
            187 5 callgsubr
            -232 464 callsubr
            246 38 hlineto
            endchar
          </CharString>
          <CharString index="156">
            -30 143 516 rmoveto
            21 32 callsubr
            34 -73 callgsubr
            -127 vlineto
            -32 callgsubr
            -77 -84 77 hlineto
            22 6 -6 -22 hvcurveto
            -135 vlineto
            -32 callgsubr
            -34 -36 callsubr
            84 -115 -100 -36 callgsubr
            101 -21 callsubr
            150 vlineto
            39 -12 23 -30 10 vhcurveto
            30 10 12 27 39 vvcurveto
            135 5 callgsubr
            -101 157 callsubr
            -101 115 vlineto
            endchar
          </CharString>
          <CharString index="157">
            88 callgsubr
            -123 vlineto
            398 callsubr
            return
          </CharString>
          <CharString index="158">
            -32 61 callsubr
            -15 return
          </CharString>
          <CharString index="159">
            -23 -8 -6 -21 vhcurveto
            -35 hlineto
            136 callsubr
            return
          </CharString>
          <CharString index="160">
            155 89 -155 175 184 88 -300 -631 308 88 return
          </CharString>
          <CharString index="161">
            hlineto
            20 14 242 callsubr
            219 callsubr
          </CharString>
          <CharString index="162">
            -21 -5 -7 -23 226 callgsubr
            23 6 5 21 vhcurveto
            47 hlineto
            23 169 callgsubr
            return
          </CharString>
          <CharString index="163">
            -292 -308 rlineto
            118 hlineto
            174 186 rlineto
            -123 return
          </CharString>
          <CharString index="164">
            -78 callsubr
            endchar
          </CharString>
          <CharString index="165">
            -69 -88 vlineto
            16 callsubr
            return
          </CharString>
          <CharString index="166">
            -23 callsubr
            252 return
          </CharString>
          <CharString index="167">
            vlineto
            -61 29 callgsubr
            54 callgsubr
          </CharString>
          <CharString index="168">
            16 -16 28 callgsubr
            return
          </CharString>
          <CharString index="169">
            184 callgsubr
            212 83 -186 336 callgsubr
            return
          </CharString>
          <CharString index="170">
            hlineto
            21 150 callgsubr
            -21 vhcurveto
            -24 -78 59 hlineto
            return
          </CharString>
          <CharString index="171">
            -8 177 337 rmoveto
            -38 callgsubr
            152 -42 callgsubr
            49 -73 callgsubr
            -179 vlineto
            -109 294 rmoveto
            92 callgsubr
            -179 -36 callgsubr
            109 -139 hlineto
            -32 callgsubr
            -45 -36 callsubr
            79 -113 -95 -36 callgsubr
            109 375 callgsubr
          </CharString>
          <CharString index="172">
            -75 callsubr
            endchar
          </CharString>
          <CharString index="173">
            hlineto
            -21 89 callsubr
            return
          </CharString>
          <CharString index="174">
            -6 263 115 156 callgsubr
            -48 -36 callsubr
            166 76 vlineto
            208 callgsubr
            -105 113 rmoveto
            149 -42 callgsubr
            44 -73 callgsubr
            -81 113 97 5 callgsubr
            -109 129 callgsubr
            114 -21 callsubr
            169 5 callgsubr
            endchar
          </CharString>
          <CharString index="175">
            -23 -8 -6 -21 vhcurveto
            -33 66 callsubr
            return
          </CharString>
          <CharString index="176">
            -397 -91 callsubr
          </CharString>
          <CharString index="177">
            50 -29 -26 17 -70 hhcurveto
            -67 -84 28 hlineto
            39 15 -14 -38 21 hvcurveto
            57 -103 -155 -238 rlineto
            129 hlineto
            125 193 rlineto
            return
          </CharString>
          <CharString index="178">
            -90 callgsubr
            96 319 callgsubr
            82 -53 -90 callgsubr
            93 vlineto
            return
          </CharString>
          <CharString index="179">
            -59 hlineto
            -77 -29 126 callsubr
            return
          </CharString>
          <CharString index="180">
            119 callsubr
            30 hlineto
            return
          </CharString>
          <CharString index="181">
            336 callgsubr
            -37 113 47 vlineto
            71 -32 29 -83 118 callsubr
            return
          </CharString>
          <CharString index="182">
            -25 -51 callgsubr
            -44 -90 callgsubr
            180 -68 callgsubr
            33 82 -233 176 callsubr
            75 hlineto
            return
          </CharString>
          <CharString index="183">
            -37 vlineto
            115 callgsubr
            -56 -30 callsubr
            37 -102 -38 vlineto
            -63 32 -36 76 vhcurveto
            return
          </CharString>
          <CharString index="184">
            rmoveto
            -23 -7 -5 -21 vhcurveto
            -24 -88 callsubr
            136 44 callgsubr
            return
          </CharString>
          <CharString index="185">
            216 rmoveto
            -23 -8 -7 134 callsubr
            334 92 vlineto
            return
          </CharString>
          <CharString index="186">
            122 -21 callsubr
            return
          </CharString>
          <CharString index="187">
            rmoveto
            112 -473 rlineto
            54 hlineto
            -8 -32 rlineto
            -29 -8 -19 -6 -27 hhcurveto
            -51 -87 67 hlineto
            80 39 38 68 17 hvcurveto
            110 521 rlineto
            -114 hlineto
            -65 -378 -70 378 rlineto
            return
          </CharString>
          <CharString index="188">
            rmoveto
            -97 116 97 hlineto
            -211 -343 -84 callsubr
            393 282 rmoveto
            -650 -83 257 -116 -98 hlineto
            235 callgsubr
          </CharString>
          <CharString index="189">
            -33 16 -15 342 callsubr
            return
          </CharString>
          <CharString index="190">
            90 callgsubr
            186 229 callgsubr
            78 return
          </CharString>
          <CharString index="191">
            rmoveto
            214 226 rlineto
            124 vlineto
            -332 -350 rlineto
            22 298 84 callgsubr
            -229 396 rmoveto
            -83 257 -69 -82 vlineto
            321 callsubr
            133 83 vlineto
            endchar
          </CharString>
          <CharString index="192">
            185 callsubr
            135 -54 callgsubr
            30 hlineto
            21 8 -5 -23 hvcurveto
            return
          </CharString>
          <CharString index="193">
            vlineto
            123 callsubr
            return
          </CharString>
          <CharString index="194">
            rmoveto
            -26 -7 -7 -26 vhcurveto
            -51 97 228 callsubr
            256 vlineto
            26 7 -6 -26 hvcurveto
            return
          </CharString>
          <CharString index="195">
            -90 callgsubr
            94 -68 callgsubr
            44 hlineto
            return
          </CharString>
          <CharString index="196">
            -6 90 callsubr
            return
          </CharString>
          <CharString index="197">
            -102 callgsubr
            180 -54 callgsubr
            return
          </CharString>
          <CharString index="198" raw="1">
            07940a0b   
          </CharString>
          <CharString index="199">
            hlineto
            -23 -7 -5 -22 vhcurveto
            -27 hlineto
            -21 398 callgsubr
            -113 -154 424 callgsubr
            -61 101 rlineto
            75 284 callgsubr
            412 callsubr
            145 237 callsubr
            387 callgsubr
            return
          </CharString>
          <CharString index="200">
            45 -20 45 callgsubr
            -83 505 83 vlineto
            -442 -152 rmoveto
            -250 vlineto
            -71 32 -29 -30 callgsubr
            29 71 hvcurveto
            168 132 82 -245 -240 vlineto
            -78 callgsubr
            240 vlineto
            329 -212 rmoveto
            -317 -321 rlineto
            125 hlineto
            192 202 rlineto
            return
          </CharString>
          <CharString index="201">
            371 45 callgsubr
            -391 -83 391 hlineto
            -144 -364 rmoveto
            -23 -7 -5 -21 vhcurveto
            -24 -88 callsubr
            182 44 callgsubr
            return
          </CharString>
          <CharString index="202">
            rmoveto
            -86 137 rlineto
            411 callsubr
            return
          </CharString>
          <CharString index="203">
            vhcurveto
            -95 callsubr
            return
          </CharString>
          <CharString index="204">
            hlineto
            18 -28 callsubr
            return
          </CharString>
          <CharString index="205">
            95 callgsubr
            251 hmoveto
            83 -521 230 callgsubr
            109 82 -97 hlineto
            -20 -13 429 callgsubr
          </CharString>
          <CharString index="206">
            rmoveto
            -635 -83 453 -69 -193 -240 hlineto
            -78 callgsubr
            240 -113 -250 vlineto
            -71 32 -29 -30 callgsubr
            29 71 hvcurveto
            168 80 -183 vlineto
            -265 -268 rlineto
            125 hlineto
            140 147 rlineto
            -93 -15 callgsubr
          </CharString>
          <CharString index="207">
            20 vlineto
            78 183 callsubr
            return
          </CharString>
          <CharString index="208">
            -73 callsubr
            -142 hlineto
            35 callgsubr
            return
          </CharString>
          <CharString index="209">
            rmoveto
            -54 vlineto
            -23 -6 -6 -24 vhcurveto
            -110 hlineto
            -23 -7 6 23 hvcurveto
            54 -97 319 callsubr
            142 hlineto
            80 399 callsubr
            vlineto
            endchar
          </CharString>
          <CharString index="210">
            976 45 callgsubr
            -996 -83 425 hlineto
            26 7 -6 -26 hvcurveto
            -162 vlineto
            -26 -7 -6 -26 vhcurveto
            -28 149 -228 -96 callgsubr
            -289 vlineto
            -61 29 callgsubr
            59 84 -24 hlineto
            -21 -7 5 22 hvcurveto
            252 -92 callsubr
            80 -294 hlineto
            -66 38 -29 85 vhcurveto
            return
          </CharString>
          <CharString index="211">
            125 callsubr
            -366 hlineto
            -61 29 callgsubr
            return
          </CharString>
          <CharString index="212">
            416 callsubr
            -42 hlineto
            -21 -7 5 22 hvcurveto
            118 -92 callgsubr
            71 hlineto
            return
          </CharString>
          <CharString index="213">
            rmoveto
            405 callsubr
            return
          </CharString>
          <CharString index="214">
            298 callgsubr
            -114 -71 vlineto
            return
          </CharString>
          <CharString index="215">
            3 378 532 433 callgsubr
            -116 129 callgsubr
            116 -21 callsubr
            -115 16 156 callgsubr
            -46 -36 callsubr
            401 -42 callgsubr
            46 136 callgsubr
            endchar
          </CharString>
          <CharString index="216">
            363 callgsubr
            251 hmoveto
            83 -521 63 callgsubr
            333 vlineto
            22 29 callsubr
            109 83 -97 hlineto
            -20 -13 -4 -9 -8 hvcurveto
            116 vlineto
            endchar
          </CharString>
          <CharString index="217">
            vhcurveto
            -84 -144 36 callsubr
            return
          </CharString>
          <CharString index="218">
            -70 32 -30 83 vhcurveto
            77 hlineto
            83 45 callsubr
          </CharString>
          <CharString index="219">
            hlineto
            -65 callgsubr
            -30 -70 hvcurveto
            -236 vlineto
            -61 28 -30 77 vhcurveto
            92 84 -57 -56 callsubr
            205 239 callgsubr
            -153 113 153 246 callgsubr
            23 vhcurveto
            return
          </CharString>
          <CharString index="220">
            rmoveto
            113 137 rlineto
            -106 hlineto
            -86 -137 rlineto
            52 137 rmoveto
            -106 hlineto
            -86 -137 rlineto
            79 hlineto
            return
          </CharString>
          <CharString index="221">
            -70 -2 callsubr
            -33 callsubr
            -61 29 callgsubr
            91 84 -56 38 callgsubr
            258 vlineto
            23 6 5 22 vhcurveto
            30 hlineto
            23 58 callgsubr
          </CharString>
          <CharString index="222">
            rmoveto
            94 105 -94 hlineto
            -364 229 163 callgsubr
            60 -6 vhcurveto
            -84 -144 rlineto
            return
          </CharString>
          <CharString index="223">
            -62 callsubr
            68 vlineto
            endchar
          </CharString>
          <CharString index="224">
            rmoveto
            -23 -7 -5 -21 vhcurveto
            -24 155 callgsubr
            181 317 callgsubr
            return
          </CharString>
          <CharString index="225">
            vhcurveto
            -71 96 callgsubr
            return
          </CharString>
          <CharString index="226">
            -38 callgsubr
            261 -42 callgsubr
            return
          </CharString>
          <CharString index="227">
            146 callsubr
            -30 45 vhcurveto
            return
          </CharString>
          <CharString index="228">
            344 callgsubr
            -288 vlineto
            -61 29 callgsubr
            249 callgsubr
            31 hlineto
            22 58 callgsubr
          </CharString>
          <CharString index="229">
            -54 0 vhcurveto
            0 -18 52 -33 63 vhcurveto
            -66 -215 rmoveto
            -42 callsubr
            return
          </CharString>
          <CharString index="230">
            21 243 callsubr
            return
          </CharString>
          <CharString index="231">
            163 hlineto
            18 -61 callgsubr
            69 vlineto
            endchar
          </CharString>
          <CharString index="232">
            -83 callsubr
            105 -113 return
          </CharString>
          <CharString index="233">
            -72 callsubr
            188 callgsubr
            return
          </CharString>
          <CharString index="234">
            vhcurveto
            59 84 140 callsubr
            return
          </CharString>
          <CharString index="235">
            -5 -23 373 callgsubr
            -22 return
          </CharString>
          <CharString index="236">
            -8 callgsubr
            -15 return
          </CharString>
          <CharString index="237">
            -113 -103 vlineto
            return
          </CharString>
          <CharString index="238">
            357 callgsubr
            -97 390 callgsubr
            113 43 -92 callsubr
            27 hlineto
            22 161 callgsubr
            return
          </CharString>
          <CharString index="239">
            88 rmoveto
            -9 callgsubr
            return
          </CharString>
          <CharString index="240">
            -193 -290 hlineto
            -34 callgsubr
            -113 return
          </CharString>
          <CharString index="241">
            -22 166 callsubr
            return
          </CharString>
          <CharString index="242">
            vlineto
            -26 -7 -7 -25 vhcurveto
            return
          </CharString>
          <CharString index="243">
            -22 -98 callsubr
            return
          </CharString>
          <CharString index="244">
            -107 callsubr
            279 -66 vlineto
            return
          </CharString>
          <CharString index="245">
            hlineto
            79 37 -31 callsubr
            294 vlineto
            4 0 3 4 vvcurveto
            175 42 callgsubr
            -51 vlineto
            -21 -7 165 callsubr
            8 8 hvcurveto
            -90 -93 callgsubr
            vlineto
            endchar
          </CharString>
          <CharString index="246">
            199 callgsubr
            -25 vlineto
            -61 29 callgsubr
            return
          </CharString>
          <CharString index="247">
            -24 -56 callsubr
            return
          </CharString>
          <CharString index="248">
            204 hlineto
            -215 -455 rlineto
            -88 328 88 -210 vlineto
            215 455 rlineto
            return
          </CharString>
          <CharString index="249">
            -36 -63 hvcurveto
            -293 vlineto
            return
          </CharString>
          <CharString index="250">
            -47 -25 -20 -44 hvcurveto
            -18 -4 vlineto
            26 -1 -19 18 -43 hhcurveto
            -293 hlineto
            -2 callgsubr
            -68 114 46 vlineto
            28 5 5 28 vhcurveto
            219 362 callsubr
            83 -68 return
          </CharString>
          <CharString index="251">
            -100 callsubr
            371 234 rmoveto
            return
          </CharString>
          <CharString index="252">
            92 callgsubr
            -433 -36 callgsubr
            return
          </CharString>
          <CharString index="253">
            0 vhcurveto
            0 -31 51 return
          </CharString>
          <CharString index="254">
            83 callgsubr
            -70 33 -30 82 vhcurveto
            133 157 callgsubr
            134 vlineto
            32 -15 15 -26 3 vhcurveto
            3 vlineto
            26 3 15 16 32 vvcurveto
            return
          </CharString>
          <CharString index="255">
            -193 vlineto
            -58 26 -29 55 -4 vhcurveto
            343 callgsubr
            -109 445 callsubr
            vlineto
            -23 -8 -7 285 callgsubr
            155 -54 callgsubr
            endchar
          </CharString>
          <CharString index="256">
            -30 77 212 callgsubr
            return
          </CharString>
          <CharString index="257">
            hlineto
            21 7 -5 return
          </CharString>
          <CharString index="258">
            rmoveto
            -21 -6 86 callgsubr
            20 -37 24 421 callsubr
            return
          </CharString>
          <CharString index="259">
            vlineto
            82 callsubr
            return
          </CharString>
          <CharString index="260">
            29 62 hvcurveto
            81 vlineto
            7 -1 7 -1 7 vhcurveto
            return
          </CharString>
          <CharString index="261">
            -20 -13 -3 -8 -8 hvcurveto
            return
          </CharString>
          <CharString index="262">
            -30 254 callsubr
            return
          </CharString>
          <CharString index="263">
            hlineto
            146 callgsubr
            return
          </CharString>
          <CharString index="264">
            hlineto
            92 callgsubr
            return
          </CharString>
          <CharString index="265">
            rmoveto
            -23 -7 -5 -21 vhcurveto
            -34 -83 callgsubr
            115 -92 callgsubr
            63 hlineto
            -409 -141 rmoveto
            -23 -7 -5 -21 vhcurveto
            -34 155 callgsubr
            115 -92 callsubr
            63 hlineto
            return
          </CharString>
          <CharString index="266">
            rmoveto
            -23 -7 -5 -22 vhcurveto
            -42 193 callgsubr
            -399 -160 rmoveto
            -23 -7 -5 -21 vhcurveto
            -24 -88 callsubr
            134 44 callgsubr
            return
          </CharString>
          <CharString index="267">
            vhcurveto
            80 hlineto
            83 return
          </CharString>
          <CharString index="268">
            -90 callgsubr
            155 -92 callgsubr
            29 260 callgsubr
            34 -29 68 378 callsubr
            68 vlineto
            endchar
          </CharString>
          <CharString index="269">
            -66 39 -29 85 vhcurveto
            return
          </CharString>
          <CharString index="270">
            -420 -402 826 rmoveto
            130 -117 55 -49 29 -21 25 -15 rlinecurve
            110 hlineto
            -32 202 300 callgsubr
            return
          </CharString>
          <CharString index="271">
            -41 callgsubr
            79 callgsubr
            vlineto
            endchar
          </CharString>
          <CharString index="272">
            331 callgsubr
            163 hlineto
            18 13 4 return
          </CharString>
          <CharString index="273">
            vhcurveto
            172 callgsubr
            return
          </CharString>
          <CharString index="274">
            232 callsubr
            -68 vhcurveto
            return
          </CharString>
          <CharString index="275">
            422 callsubr
            22 vhcurveto
            return
          </CharString>
          <CharString index="276">
            167 callgsubr
            254 callgsubr
            181 vlineto
            22 -81 callsubr
            24 82 return
          </CharString>
          <CharString index="277">
            rmoveto
            -73 callsubr
            -142 -83 callgsubr
            return
          </CharString>
          <CharString index="278">
            hlineto
            119 callsubr
            return
          </CharString>
          <CharString index="279">
            -24 -9 -9 -22 vhcurveto
            return
          </CharString>
          <CharString index="280">
            -64 callgsubr
            69 vlineto
            endchar
          </CharString>
          <CharString index="281">
            131 -155 hlineto
            -78 9 122 callsubr
            93 -181 rlineto
            -11 -3 return
          </CharString>
          <CharString index="282">
            -70 32 443 callgsubr
            -139 114 321 -114 -81 vlineto
            450 callsubr
            -32 hlineto
            136 callsubr
            171 vlineto
            22 -81 callsubr
            endchar
          </CharString>
          <CharString index="283">
            -82 73 hlineto
            -9 -8 -5 -12 -19 179 callgsubr
            return
          </CharString>
          <CharString index="284">
            hhcurveto
            -95 callsubr
            return
          </CharString>
          <CharString index="285">
            15 6 8 12 vhcurveto
            23 34 -43 50 hhcurveto
            return
          </CharString>
          <CharString index="286">
            -15 -26 -3 hvcurveto
            return
          </CharString>
          <CharString index="287">
            4 33 callgsubr
            return
          </CharString>
          <CharString index="288">
            -54 -19 -30 -36 -30 6 -36 1 -5 hvcurveto
            -3 hlineto
            -4 23 -9 34 -9 31 -11 39 rcurveline
            -110 hlineto
            40 -62 31 -52 22 -31 35 -44 rlinecurve
            -4 hlineto
            -37 44 -32 34 -60 61 -52 50 rcurveline
            return
          </CharString>
          <CharString index="289">
            267 callgsubr
            219 callsubr
          </CharString>
          <CharString index="290">
            26 34 62 hvcurveto
            return
          </CharString>
          <CharString index="291">
            -17 354 397 rmoveto
            227 callsubr
            261 callsubr
            return
          </CharString>
          <CharString index="292">
            rmoveto
            -23 -8 -5 -21 43 callsubr
            return
          </CharString>
          <CharString index="293">
            vlineto
            -71 32 -29 83 vhcurveto
            77 430 callsubr
            return
          </CharString>
          <CharString index="294">
            381 45 callgsubr
            -401 -83 401 hlineto
            return
          </CharString>
          <CharString index="295">
            433 5 callgsubr
            return
          </CharString>
          <CharString index="296">
            178 vlineto
            11 -14 20 -37 return
          </CharString>
          <CharString index="297">
            -83 228 hlineto
            104 callsubr
            204 78 -169 hlineto
            -21 -7 5 22 hvcurveto
            170 return
          </CharString>
          <CharString index="298">
            66 -37 28 -61 vhcurveto
            -317 hlineto
            -62 -36 -28 -66 hvcurveto
            -68 113 46 vlineto
            28 5 5 29 vhcurveto
            219 362 callsubr
            return
          </CharString>
          <CharString index="299">
            hlineto
            202 callgsubr
          </CharString>
          <CharString index="300">
            -79 callgsubr
            136 callsubr
            return
          </CharString>
          <CharString index="301">
            -87 hlineto
            -89 callgsubr
            return
          </CharString>
          <CharString index="302">
            117 vlineto
            62 -28 29 return
          </CharString>
          <CharString index="303">
            vlineto
            172 callsubr
            return
          </CharString>
          <CharString index="304">
            537 795 195 170 callsubr
            39 20 vlineto
            78 26 34 61 hvcurveto
            66 358 callgsubr
            -200 63 384 hlineto
            return
          </CharString>
          <CharString index="305">
            449 callgsubr
            463 426 callsubr
            -631 240 vlineto
            126 callgsubr
          </CharString>
          <CharString index="306">
            vlineto
            -59 27 -29 57 -3 vhcurveto
            287 callsubr
            103 392 callgsubr
            return
          </CharString>
          <CharString index="307">
            195 22 callgsubr
            190 callgsubr
            return
          </CharString>
          <CharString index="308">
            40 306 callgsubr
            -83 -83 56 hlineto
            22 403 callsubr
            -18 394 callgsubr
            -73 -83 callgsubr
            160 -54 callgsubr
            endchar
          </CharString>
          <CharString index="309">
            279 vlineto
            69 -30 29 -77 2 vhcurveto
            69 vlineto
            endchar
          </CharString>
          <CharString index="310">
            259 callgsubr
            186 229 callgsubr
            78 72 callsubr
            76 hlineto
            return
          </CharString>
          <CharString index="311">
            359 callsubr
            -32 vvcurveto
            -111 vlineto
            -62 30 -29 63 vhcurveto
            80 275 callgsubr
            104 410 callgsubr
          </CharString>
          <CharString index="312">
            124 callgsubr
            -62 152 callsubr
            return
          </CharString>
          <CharString index="313">
            hlineto
            -62 30 -29 63 vhcurveto
            103 275 callgsubr
            return
          </CharString>
          <CharString index="314">
            hlineto
            83 32 -31 callsubr
            return
          </CharString>
          <CharString index="315">
            -4 -8 -8 hvcurveto
            return
          </CharString>
          <CharString index="316">
            rmoveto
            112 hlineto
            52 77 53 -77 423 callsubr
            -106 137 rlineto
            -117 hlineto
            endchar
          </CharString>
          <CharString index="317">
            432 rmoveto
            -98 116 98 hlineto
            -211 return
          </CharString>
          <CharString index="318" raw="1">
            7c831d0b   
          </CharString>
          <CharString index="319">
            -6 5 22 hvcurveto
            return
          </CharString>
          <CharString index="320">
            -92 callgsubr
            108 hlineto
            77 29 30 62 hvcurveto
            50 vlineto
            62 -29 30 -77 vhcurveto
            -98 432 callsubr
            18 -92 callsubr
            endchar
          </CharString>
          <CharString index="321">
            hlineto
            -21 -6 5 20 hvcurveto
            31 vlineto
            19 463 callsubr
            endchar
          </CharString>
          <CharString index="322">
            -62 callgsubr
            -141 hlineto
            -21 -8 -45 callsubr
            91 hlineto
            return
          </CharString>
          <CharString index="323">
            -290 hlineto
            -87 callsubr
            return
          </CharString>
          <CharString index="324">
            -297 60 callsubr
          </CharString>
          <CharString index="325">
            hlineto
            -21 -7 5 22 hvcurveto
            258 -54 callgsubr
            return
          </CharString>
          <CharString index="326">
            113 174 callgsubr
          </CharString>
          <CharString index="327">
            hlineto
            -78 -28 -34 -62 hvcurveto
            return
          </CharString>
          <CharString index="328">
            98 hlineto
            78 28 return
          </CharString>
          <CharString index="329">
            341 callgsubr
            -45 0 callsubr
            -3 -16 -15 -32 vvcurveto
            -138 vlineto
            -23 callgsubr
            return
          </CharString>
          <CharString index="330">
            195 170 callsubr
            155 100 callsubr
            74 107 callgsubr
            return
          </CharString>
          <CharString index="331">
            63 callsubr
            77 return
          </CharString>
          <CharString index="332">
            -223 hlineto
            -89 6 -32 18 callgsubr
            return
          </CharString>
          <CharString index="333">
            317 callsubr
            22 9 -9 return
          </CharString>
          <CharString index="334">
            151 69 83 -449 -83 267 -69 -93 return
          </CharString>
          <CharString index="335">
            -164 39 callgsubr
            return
          </CharString>
          <CharString index="336">
            -30 -36 callsubr
            return
          </CharString>
          <CharString index="337">
            408 callgsubr
            -294 366 callsubr
            669 return
          </CharString>
          <CharString index="338">
            rmoveto
            -115 hlineto
            113 -139 rlineto
            116 hlineto
            endchar
          </CharString>
          <CharString index="339">
            vlineto
            71 -34 29 return
          </CharString>
          <CharString index="340">
            -104 callgsubr
            165 return
          </CharString>
          <CharString index="341">
            -78 -28 -29 -62 hvcurveto
            -210 164 callgsubr
          </CharString>
          <CharString index="342">
            83 -186 88 callsubr
            return
          </CharString>
          <CharString index="343">
            vlineto
            146 callgsubr
            -55 -4 callgsubr
            return
          </CharString>
          <CharString index="344">
            hlineto
            25 15 7 16 7 253 callsubr
            return
          </CharString>
          <CharString index="345">
            63 hlineto
            20 -61 callgsubr
            return
          </CharString>
          <CharString index="346">
            418 callsubr
            82 33 30 70 hvcurveto
            return
          </CharString>
          <CharString index="347">
            -158 320 callsubr
            return
          </CharString>
          <CharString index="348">
            hlineto
            44 callsubr
            return
          </CharString>
          <CharString index="349">
            180 callsubr
            -91 return
          </CharString>
          <CharString index="350">
            7 6 22 vhcurveto
            return
          </CharString>
          <CharString index="351">
            -17 354 297 callsubr
            73 83 -453 -83 267 -69 -93 261 callsubr
            -210 vlineto
            -46 14 -29 34 -14 vhcurveto
            return
          </CharString>
          <CharString index="352">
            162 -64 callsubr
          </CharString>
          <CharString index="353">
            184 callsubr
            -210 81 callgsubr
            return
          </CharString>
          <CharString index="354">
            145 rlineto
            54 8 20 29 52 vvcurveto
            -40 callsubr
            return
          </CharString>
          <CharString index="355">
            hlineto
            -83 callsubr
            127 return
          </CharString>
          <CharString index="356">
            rmoveto
            194 callsubr
            return
          </CharString>
          <CharString index="357">
            rmoveto
            -201 38 vlineto
            80 141 rlineto
            60 vlineto
            endchar
          </CharString>
          <CharString index="358">
            -54 callsubr
            5 return
          </CharString>
          <CharString index="359">
            36 5 314 callsubr
            return
          </CharString>
          <CharString index="360">
            hvcurveto
            -16 18 434 callsubr
            return
          </CharString>
          <CharString index="361">
            83 vhcurveto
            77 hlineto
            83 return
          </CharString>
          <CharString index="362">
            221 callgsubr
            150 vlineto
            71 -9 50 0 vhcurveto
            0 17 -49 32 -60 vhcurveto
            94 -176 rlineto
            -11 -4 376 callsubr
            return
          </CharString>
          <CharString index="363">
            vlineto
            -77 -29 -29 -62 hvcurveto
            -62 184 callgsubr
            return
          </CharString>
          <CharString index="364">
            -8 vlineto
            -146 vlineto
            -71 33 -29 82 vhcurveto
            12 callgsubr
            154 97 -349 -91 callsubr
          </CharString>
          <CharString index="365">
            -31 callsubr
            219 76 142 callgsubr
            return
          </CharString>
          <CharString index="366">
            -23 -7 -5 -21 vhcurveto
            -27 155 callgsubr
            return
          </CharString>
          <CharString index="367">
            vlineto
            44 callsubr
            return
          </CharString>
          <CharString index="368">
            vlineto
            -98 callgsubr
            return
          </CharString>
          <CharString index="369">
            -358 hlineto
            -23 -8 -6 return
          </CharString>
          <CharString index="370">
            hlineto
            12 3 -4 -11 hvcurveto
            -63 vlineto
            -11 -3 -4 -12 vhcurveto
            -33 -52 33 hlineto
            12 3 -3 -12 hvcurveto
            -64 vlineto
            -12 -3 -3 -12 vhcurveto
            return
          </CharString>
          <CharString index="371">
            277 callsubr
            endchar
          </CharString>
          <CharString index="372">
            219 callgsubr
            114 return
          </CharString>
          <CharString index="373">
            -21 -7 5 21 hvcurveto
            33 -92 callsubr
            166 147 return
          </CharString>
          <CharString index="374">
            329 callsubr
            143 callgsubr
            return
          </CharString>
          <CharString index="375">
            -77 -87 callgsubr
            return
          </CharString>
          <CharString index="376">
            4 8 8 hvcurveto
            return
          </CharString>
          <CharString index="377">
            vlineto
            320 callgsubr
            38 hlineto
            -97 -149 320 callsubr
            102 161 rlineto
            -107 -91 callsubr
          </CharString>
          <CharString index="378">
            vlineto
            34 callsubr
          </CharString>
          <CharString index="379">
            66 callsubr
            endchar
          </CharString>
          <CharString index="380">
            46 hlineto
            20 162 callgsubr
            return
          </CharString>
          <CharString index="381">
            154 callsubr
            110 return
          </CharString>
          <CharString index="382">
            453 callgsubr
            -72 vhcurveto
            endchar
          </CharString>
          <CharString index="383">
            -83 269 -69 -95 vlineto
            205 callsubr
            return
          </CharString>
          <CharString index="384">
            rmoveto
            -412 vlineto
            -133 412 rlineto
            -111 -631 106 418 hlineto
            135 -418 rlineto
            108 631 hlineto
            return
          </CharString>
          <CharString index="385">
            rmoveto
            -48 -30 -29 -36 -10 hvcurveto
            63 431 callgsubr
            323 vlineto
            48 21 24 42 vhcurveto
            42 98 hlineto
            endchar
          </CharString>
          <CharString index="386">
            316 callsubr
            -48 callsubr
            return
          </CharString>
          <CharString index="387">
            341 callsubr
            -7 5 23 hvcurveto
            return
          </CharString>
          <CharString index="388">
            rlineto
            252 callgsubr
            return
          </CharString>
          <CharString index="389">
            456 callsubr
            -85 return
          </CharString>
          <CharString index="390">
            399 callgsubr
            hlineto
            -23 -7 -5 return
          </CharString>
          <CharString index="391">
            -100 callgsubr
            99 vlineto
            22 7 5 return
          </CharString>
          <CharString index="392">
            5 callsubr
            89 hlineto
            82 33 30 return
          </CharString>
          <CharString index="393">
            vlineto
            263 callgsubr
            return
          </CharString>
          <CharString index="394">
            -103 -158 rlineto
            122 hlineto
            return
          </CharString>
          <CharString index="395">
            -181 rlineto
            -11 -3 return
          </CharString>
          <CharString index="396">
            -157 -23 callsubr
            return
          </CharString>
          <CharString index="397">
            rmoveto
            -322 -88 141 callsubr
            endchar
          </CharString>
          <CharString index="398">
            hlineto
            294 callsubr
          </CharString>
          <CharString index="399">
            190 rmoveto
            83 callsubr
            return
          </CharString>
          <CharString index="400">
            -32 78 vhcurveto
            86 hlineto
            19 12 3 8 8 hvcurveto
            -83 113 448 -113 -65 vlineto
            -20 -7 -5 -21 vhcurveto
            return
          </CharString>
          <CharString index="401">
            21 callgsubr
            370 84 232 callgsubr
          </CharString>
          <CharString index="402">
            -3 callsubr
            35 24 14 28 10 hvcurveto
            return
          </CharString>
          <CharString index="403">
            21 callgsubr
            219 return
          </CharString>
          <CharString index="404">
            397 rmoveto
            151 return
          </CharString>
          <CharString index="405">
            hlineto
            -21 -8 5 return
          </CharString>
          <CharString index="406">
            rmoveto
            -21 212 callsubr
            161 vlineto
            11 -14 18 -28 26 -43 66 -100 rcurveline
            -2 -4 -5 -1 -7 hhcurveto
            return
          </CharString>
          <CharString index="407">
            vlineto
            25 callsubr
            return
          </CharString>
          <CharString index="408">
            -17 callsubr
            80 return
          </CharString>
          <CharString index="409">
            hlineto
            -23 callgsubr
            163 hlineto
            18 162 callgsubr
            -81 -91 callsubr
          </CharString>
          <CharString index="410">
            -6 -5 -21 vhcurveto
            -24 -78 59 hlineto
            78 28 return
          </CharString>
          <CharString index="411">
            402 callsubr
            69 hlineto
            endchar
          </CharString>
          <CharString index="412">
            26 -56 5 vhcurveto
            70 vlineto
            endchar
          </CharString>
          <CharString index="413">
            -36 77 vhcurveto
            113 hlineto
            return
          </CharString>
          <CharString index="414">
            hlineto
            21 6 -5 -23 hvcurveto
            return
          </CharString>
          <CharString index="415">
            -5 vhcurveto
            -103 -159 rlineto
            return
          </CharString>
          <CharString index="416">
            -87 hlineto
            -79 callsubr
            return
          </CharString>
          <CharString index="417">
            hlineto
            268 callsubr
            -193 vlineto
            -73 callsubr
            -31 -90 callgsubr
            359 return
          </CharString>
          <CharString index="418">
            364 callgsubr
            548 69 vlineto
            endchar
          </CharString>
          <CharString index="419">
            261 callsubr
            -59 vlineto
            -62 29 callgsubr
            return
          </CharString>
          <CharString index="420">
            hlineto
            -26 -5 5 26 hvcurveto
            24 vlineto
            26 5 5 26 vhcurveto
            return
          </CharString>
          <CharString index="421">
            -6 -27 hvcurveto
            -107 1 callgsubr
            return
          </CharString>
          <CharString index="422">
            -94 callgsubr
            359 92 return
          </CharString>
          <CharString index="423">
            -92 callsubr
            24 78 return
          </CharString>
          <CharString index="424">
            -42 callgsubr
            30 hlineto
            return
          </CharString>
          <CharString index="425">
            -73 callgsubr
            -50 return
          </CharString>
          <CharString index="426">
            -66 vlineto
            -59 31 -29 80 vhcurveto
            return
          </CharString>
          <CharString index="427">
            rlineto
            121 hlineto
            return
          </CharString>
          <CharString index="428">
            173 callgsubr
            -131 vlineto
            -71 285 callsubr
            71 hvcurveto
            295 return
          </CharString>
          <CharString index="429">
            -76 callsubr
            28 260 callgsubr
            35 -29 67 vhcurveto
            return
          </CharString>
          <CharString index="430">
            -124 hlineto
            -126 -314 125 -317 rlineto
            124 hlineto
            -129 317 rlineto
            endchar
          </CharString>
          <CharString index="431">
            vlineto
            63 -32 36 return
          </CharString>
          <CharString index="432">
            hlineto
            136 callsubr
            94 vlineto
            23 6 5 22 vhcurveto
            44 195 callgsubr
            -37 return
          </CharString>
          <CharString index="433">
            rmoveto
            189 callsubr
            24 -43 69 -112 rcurveline
            -97 -90 callgsubr
            return
          </CharString>
          <CharString index="434">
            rmoveto
            -116 154 rlineto
            -113 hlineto
            116 -154 -116 -154 rlineto
            113 hlineto
            return
          </CharString>
          <CharString index="435">
            hhcurveto
            140 callgsubr
            68 vlineto
            endchar
          </CharString>
          <CharString index="436">
            101 281 callsubr
            return
          </CharString>
          <CharString index="437">
            -31 callsubr
            171 388 callgsubr
            return
          </CharString>
          <CharString index="438">
            -22 -8 -6 -19 vhcurveto
            -64 hlineto
            -20 212 callsubr
            return
          </CharString>
          <CharString index="439">
            7 callsubr
            63 return
          </CharString>
          <CharString index="440">
            -77 -2 -31 -29 -69 vvcurveto
            -279 vlineto
            return
          </CharString>
          <CharString index="441">
            -23 -8 -7 -22 vhcurveto
            return
          </CharString>
          <CharString index="442">
            110 callsubr
            -83 145 rlineto
            return
          </CharString>
          <CharString index="443">
            -21 -7 vlineto
            367 callsubr
          </CharString>
          <CharString index="444">
            452 callsubr
            -489 -83 306 -69 -137 261 callsubr
            return
          </CharString>
          <CharString index="445">
            216 95 callgsubr
            return
          </CharString>
          <CharString index="446">
            hlineto
            79 37 -31 callsubr
            288 vlineto
            59 -29 305 callsubr
          </CharString>
          <CharString index="447">
            -76 -32 -36 -63 hvcurveto
            -79 -50 -88 50 -403 return
          </CharString>
          <CharString index="448">
            370 callgsubr
            -21 return
          </CharString>
          <CharString index="449">
            28 callgsubr
            -15 -33 vvcurveto
            return
          </CharString>
          <CharString index="450">
            rmoveto
            303 79 -303 hlineto
            endchar
          </CharString>
          <CharString index="451">
            hlineto
            397 callsubr
            return
          </CharString>
          <CharString index="452">
            rmoveto
            -105 94 105 vlineto
            endchar
          </CharString>
          <CharString index="453">
            -76 -33 -36 -63 hvcurveto
            return
          </CharString>
          <CharString index="454">
            -297 vlineto
            -61 return
          </CharString>
          <CharString index="455">
            -34 -29 -71 hvcurveto
            return
          </CharString>
          <CharString index="456">
            rmoveto
            163 68 83 -677 -83 495 -80 -93 vlineto
            268 callsubr
            return
          </CharString>
          <CharString index="457">
            -5 -21 vhcurveto
            -42 297 callgsubr
            return
          </CharString>
          <CharString index="458">
            826 rmoveto
            -136 hlineto
            63 -87 38 -50 34 -39 33 -28 rlinecurve
            111 hlineto
            return
          </CharString>
          <CharString index="459">
            210 callsubr
            -359 rmoveto
            -23 -7 -5 -21 vhcurveto
            return
          </CharString>
          <CharString index="460">
            -160 212 45 callgsubr
            -193 -88 78 -543 115 hlineto
            endchar
          </CharString>
          <CharString index="461">
            43 callgsubr
            80 return
          </CharString>
          <CharString index="462">
            -277 -96 callgsubr
            return
          </CharString>
          <CharString index="463">
            vlineto
            23 8 6 21 vhcurveto
            return
          </CharString>
          <CharString index="464">
            1 callgsubr
            -22 vhcurveto
            return
          </CharString>
          <CharString index="465">
            392 453 callgsubr
            return
          </CharString>
          <CharString index="466">
            -3 vlineto
            -26 -3 -16 -15 return
          </CharString>
          <CharString index="467">
            26 3 15 15 33 vvcurveto
            return
          </CharString>
          <CharString index="468">
            101 rlineto
            74 78 return
          </CharString>
          <CharString index="469">
            288 callgsubr
            -86 -68 -83 68 -67 callsubr
            return
          </CharString>
          <CharString index="470">
            330 callgsubr
            -19 vhcurveto
            -30 hlineto
            -21 return
          </CharString>
          <CharString index="471">
            -69 rmoveto
            -103 hlineto
            -67 348 callsubr
            -288 vlineto
            -61 28 -30 77 vhcurveto
            return
          </CharString>
          <CharString index="472">
            459 206 callgsubr
            return
          </CharString>
          <CharString index="473">
            20 callsubr
            112 return
          </CharString>
          <CharString index="474">
            66 callgsubr
            hlineto
            endchar
          </CharString>
          <CharString index="475">
            -83 68 -370 vlineto
            -70 -2 callsubr
            return
          </CharString>
          <CharString index="476">
            -5 -21 vhcurveto
            -27 -83 callgsubr
            return
          </CharString>
          <CharString index="477">
            240 callsubr
            103 163 rlineto
            return
          </CharString>
          <CharString index="478">
            -22 -7 -5 -21 vhcurveto
            return
          </CharString>
          <CharString index="479">
            -83 269 -69 -95 return
          </CharString>
          <CharString index="480">
            186 rmoveto
            -73 callsubr
            -142 -90 callgsubr
            return
          </CharString>
          <CharString index="481">
            -2 -103 -159 rcurveline
            122 hlineto
            103 392 callgsubr
            return
          </CharString>
          <CharString index="482">
            hlineto
            20 162 callgsubr
            -90 -15 callgsubr
          </CharString>
          <CharString index="483">
            -8 -3 -16 hhcurveto
            return
          </CharString>
          <CharString index="484">
            26 2 15 16 33 vvcurveto
            116 vlineto
            11 -3 9 -4 6 vhcurveto
            return
          </CharString>
          <CharString index="485">
            vhcurveto
            56 hlineto
            22 14 5 10 8 hvcurveto
            -116 111 548 return
          </CharString>
          <CharString index="486">
            vlineto
            -23 -3 -11 -24 vhcurveto
            -60 -20 71 -84 hhcurveto
            -45 hlineto
            -66 -26 return
          </CharString>
          <CharString index="487">
            hlineto
            78 28 330 callgsubr
            return
          </CharString>
          <CharString index="488">
            hlineto
            -21 -7 5 22 hvcurveto
            87 -54 callgsubr
            endchar
          </CharString>
          <CharString index="489">
            -69 355 callsubr
            return
          </CharString>
          <CharString index="490">
            -23 vhcurveto
            -30 hlineto
            -21 -7 5 return
          </CharString>
          <CharString index="491">
            21 vlineto
            77 183 callsubr
            return
          </CharString>
          <CharString index="492">
            -96 -90 callgsubr
            return
          </CharString>
          <CharString index="493">
            80 157 callgsubr
            return
          </CharString>
          <CharString index="494">
            88 rmoveto
            -38 callgsubr
            return
          </CharString>
          <CharString index="495">
            122 135 -122 hlineto
            return
          </CharString>
          <CharString index="496">
            669 -113 -669 vlineto
            return
          </CharString>
          <CharString index="497">
            434 callgsubr
            -52 return
          </CharString>
          <CharString index="498">
            rmoveto
            -122 -105 122 hlineto
            return
          </CharString>
          <CharString index="499">
            246 callgsubr
            23 vhcurveto
            58 return
          </CharString>
          <CharString index="500">
            vlineto
            -22 -6 -5 -22 vhcurveto
            return
          </CharString>
          <CharString index="501">
            vlineto
            420 callsubr
            return
          </CharString>
          <CharString index="502">
            hlineto
            -67 -35 -29 -71 hvcurveto
            return
          </CharString>
          <CharString index="503">
            -182 453 callsubr
            return
          </CharString>
          <CharString index="504">
            -8 -8 -5 -13 -18 vvcurveto
            return
          </CharString>
          <CharString index="505">
            -70 37 -30 79 vhcurveto
            return
          </CharString>
          <CharString index="506">
            32 29 59 hvcurveto
            66 return
          </CharString>
          <CharString index="507">
            26 6 -6 -26 hvcurveto
            -131 444 callsubr
            return
          </CharString>
          <CharString index="508" raw="1">
            f8341df7 37069d98 8f0b 
          </CharString>
          <CharString index="509">
            113 548 return
          </CharString>
          <CharString index="510">
            7 -5 -23 hvcurveto
            return
          </CharString>
          <CharString index="511">
            124 callgsubr
            -288 81 callgsubr
            return
          </CharString>
          <CharString index="512">
            -21 -6 5 19 hvcurveto
            23 vlineto
            20 347 callgsubr
            return
          </CharString>
          <CharString index="513">
            -97 callgsubr
            69 83 -69 -90 callgsubr
            return
          </CharString>
          <CharString index="514">
            81 callgsubr
            78 157 callgsubr
            return
          </CharString>
          <CharString index="515">
            hlineto
            36 4 460 callgsubr
            return
          </CharString>
          <CharString index="516">
            113 403 callgsubr
            385 callgsubr
            return
          </CharString>
          <CharString index="517">
            rmoveto
            -201 38 vlineto
            81 141 rlineto
            60 vlineto
            endchar
          </CharString>
          <CharString index="518">
            -121 hlineto
            113 -137 rlineto
            return
          </CharString>
          <CharString index="519">
            143 callgsubr
            34 -30 68 vhcurveto
            return
          </CharString>
          <CharString index="520">
            -204 hlineto
            -23 callgsubr
            return
          </CharString>
          <CharString index="521">
            rmoveto
            -110 -693 110 hlineto
            return
          </CharString>
          <CharString index="522">
            429 callsubr
            -23 vhcurveto
            return
          </CharString>
          <CharString index="523">
            -343 rmoveto
            371 callsubr
            return
          </CharString>
          <CharString index="524">
            -83 86 156 callsubr
            return
          </CharString>
          <CharString index="525">
            261 callgsubr
            80 hlineto
            return
          </CharString>
          <CharString index="526">
            548 69 83 vlineto
            endchar
          </CharString>
          <CharString index="527">
            22 6 5 22 vhcurveto
            return
          </CharString>
          <CharString index="528">
            -43 73 -112 rcurveline
            return
          </CharString>
          <CharString index="529">
            vlineto
            21 6 5 return
          </CharString>
          <CharString index="530">
            rlineto
            112 hlineto
            return
          </CharString>
          <CharString index="531">
            hlineto
            -2 callgsubr
            -68 113 46 vlineto
            28 return
          </CharString>
          <CharString index="532">
            320 callsubr
            103 163 rlineto
            -109 114 return
          </CharString>
          <CharString index="533">
            90 -73 callgsubr
            -233 111 rmoveto
            return
          </CharString>
          <CharString index="534">
            11 callgsubr
            -83 return
          </CharString>
          <CharString index="535">
            vlineto
            23 8 -99 callgsubr
            endchar
          </CharString>
          <CharString index="536">
            -332 hlineto
            -24 -10 -8 return
          </CharString>
          <CharString index="537">
            hlineto
            83 33 29 71 hvcurveto
            return
          </CharString>
          <CharString index="538">
            -349 402 callsubr
            return
          </CharString>
          <CharString index="539">
            hlineto
            -21 -7 5 21 hvcurveto
            return
          </CharString>
          <CharString index="540">
            vlineto
            62 -28 30 -78 vhcurveto
            return
          </CharString>
          <CharString index="541">
            28 -7 41 hhcurveto
            return
          </CharString>
          <CharString index="542">
            -15 26 -3 vhcurveto
            return
          </CharString>
          <CharString index="543">
            36 -76 vhcurveto
            endchar
          </CharString>
          <CharString index="544">
            475 vlineto
            -189 -359 rmoveto
            -23 -7 -5 return
          </CharString>
          <CharString index="545">
            hlineto
            -30 -155 rlineto
            99 hlineto
            30 155 rlineto
            return
          </CharString>
          <CharString index="546">
            hlineto
            252 callsubr
            return
          </CharString>
          <CharString index="547">
            399 callsubr
            -98 -54 vlineto
            -23 -6 -6 return
          </CharString>
          <CharString index="548">
            154 rlineto
            -113 hlineto
            -116 -154 rlineto
            return
          </CharString>
          <CharString index="549">
            287 callgsubr
            90 hlineto
            -411 return
          </CharString>
          <CharString index="550">
            98 -349 -15 callgsubr
          </CharString>
          <CharString index="551">
            vlineto
            397 callgsubr
            return
          </CharString>
          <CharString index="552">
            113 403 callgsubr
            -61 return
          </CharString>
          <CharString index="553">
            -83 257 -116 -98 hlineto
            return
          </CharString>
          <CharString index="554">
            -82 hlineto
            173 callgsubr
            return
          </CharString>
          <CharString index="555">
            rmoveto
            397 89 -397 hlineto
            return
          </CharString>
          <CharString index="556">
            289 callgsubr
            87 83 return
          </CharString>
          <CharString index="557">
            -23 -8 -7 -21 vhcurveto
            return
          </CharString>
          <CharString index="558">
            77 32 37 62 hvcurveto
            return
          </CharString>
          <CharString index="559">
            rmoveto
            151 69 83 return
          </CharString>
          <CharString index="560">
            hlineto
            1 -83 rlineto
            return
          </CharString>
          <CharString index="561">
            -83 68 -548 return
          </CharString>
          <CharString index="562">
            7 5 22 vhcurveto
            return
          </CharString>
          <CharString index="563">
            vhcurveto
            154 callgsubr
            return
          </CharString>
          <CharString index="564">
            -183 33 vlineto
            53 127 rlineto
            56 vlineto
            return
          </CharString>
          <CharString index="565">
            25 26 -18 19 -26 -25 -19 -19 -26 vhcurveto
            return
          </CharString>
          <CharString index="566">
            -8 hlineto
            -146 vlineto
            -71 32 -29 83 vhcurveto
            return
          </CharString>
          <CharString index="567">
            -30 83 vhcurveto
            77 207 callsubr
            return
          </CharString>
          <CharString index="568">
            -349 219 callsubr
          </CharString>
          <CharString index="569">
            -110 vlineto
            -66 return
          </CharString>
          <CharString index="570">
            6 6 21 vhcurveto
            return
          </CharString>
          <CharString index="571">
            -631 115 return
          </CharString>
          <CharString index="572">
            vlineto
            78 28 34 return
          </CharString>
        <CharString name=".notdef">
          333 171 hmoveto
          410 701 -410 hlineto
          66 -61 rmoveto
          279 -579 -279 hlineto
          endchar
        </CharString>
        <CharString name="A">
          11 160 218 rmoveto
          -66 callgsubr
        </CharString>
        <CharString name="AE">
          214 204 225 rmoveto
          106 293 rlineto
          -293 vlineto
          111 -137 rmoveto
          191 155 89 -155 175 185 88 -359 vlineto
          -239 -631 rlineto
          114 hlineto
          50 139 rlineto
          138 -139 304 88 hlineto
          endchar
        </CharString>
        <CharString name="Aacute">
          11 374 800 23 callgsubr
          -101 -445 rmoveto
          -66 callgsubr
        </CharString>
        <CharString name="Abreve">
          11 263 663 rmoveto
          76 32 36 63 hvcurveto
          38 -102 76 callsubr
          -1 -445 rmoveto
          -66 callgsubr
        </CharString>
        <CharString name="Acircumflex">
          11 212 740 15 callsubr
          -445 vmoveto
          -66 callgsubr
        </CharString>
        <CharString name="Adieresis">
          11 372 767 72 callgsubr
          -8 -444 rmoveto
          -66 callgsubr
        </CharString>
        <CharString name="Agrave">
          11 253 663 95 callsubr
          1 -445 rmoveto
          -66 callgsubr
        </CharString>
        <CharString name="Amacron">
          11 364 741 389 callgsubr
          -204 -444 rmoveto
          -66 callgsubr
        </CharString>
        <CharString name="Aogonek">
          11 160 218 rmoveto
          52 302 55 -302 rlineto
          90 -384 106 callsubr
          106 -3 hlineto
          -130 619 rlineto
          -155 hlineto
          -127 -631 rlineto
          115 hlineto
          22 131 rlineto
          138 hlineto
          24 -131 rlineto
          39 -21 -7 hlineto
          367 callsubr
        </CharString>
        <CharString name="Aring">
          11 171 750 -14 callsubr
          -17 -444 rmoveto
          -66 callgsubr
        </CharString>
        <CharString name="Atilde">
          11 144 683 rmoveto
          178 callsubr
          -18 callsubr
          vlineto
          16 -445 rmoveto
          -66 callgsubr
        </CharString>
        <CharString name="B">
          20 48 45 callgsubr
          -631 240 vlineto
          -24 callgsubr
          148 vlineto
          39 -12 23 -30 10 vhcurveto
          30 10 12 28 39 vvcurveto
          136 5 callgsubr
          -5 -520 156 callgsubr
          -91 193 91 hlineto
          22 7 -5 -22 hvcurveto
          138 vmoveto
          115 callgsubr
          -91 186 91 136 callgsubr
          endchar
        </CharString>
        <CharString name="C">
          -9 378 422 -34 callsubr
        </CharString>
        <CharString name="CR">
          -259 endchar
        </CharString>
        <CharString name="Cacute">
          -9 369 800 23 callgsubr
          122 -241 -34 callsubr
        </CharString>
        <CharString name="Ccaron">
          -9 268 663 rmoveto
          -26 callgsubr
          106 -137 rlineto
          227 -241 -34 callsubr
        </CharString>
        <CharString name="Ccedilla">
          -9 158 224 callgsubr
          220 471 -34 callsubr
        </CharString>
        <CharString name="D">
          26 286 111 198 callsubr
        </CharString>
        <CharString name="Dcaron">
          26 278 663 rmoveto
          -26 callgsubr
          106 -137 rlineto
          125 -552 198 callsubr
        </CharString>
        <CharString name="Dcroat">
          30 286 355 callgsubr
          -90 189 69 83 -69 183 90 -73 callgsubr
          -233 115 rmoveto
          -271 -52 -83 52 -277 240 vlineto
          126 callgsubr
        </CharString>
        <CharString name="E">
          -46 164 88 rmoveto
          191 53 callsubr
          vlineto
          endchar
        </CharString>
        <CharString name="Eacute">
          -46 356 800 23 callgsubr
          -79 -384 rmoveto
          53 callsubr
          -192 hlineto
          endchar
        </CharString>
        <CharString name="Ecaron">
          -46 258 663 rmoveto
          -26 callgsubr
          106 -137 rlineto
          23 -384 rmoveto
          53 callsubr
          -192 hlineto
          endchar
        </CharString>
        <CharString name="Ecircumflex">
          -46 200 740 15 callsubr
          16 -384 rmoveto
          53 callsubr
          -192 hlineto
          endchar
        </CharString>
        <CharString name="Edieresis">
          -24 154 767 rmoveto
          -116 -105 116 hlineto
          10 -383 rmoveto
          53 callsubr
          -192 hlineto
          78 679 rmoveto
          -105 116 105 vlineto
          endchar
        </CharString>
        <CharString name="Edotaccent">
          -46 267 768 391 callsubr
          -103 -575 rmoveto
          191 53 callsubr
          vlineto
          endchar
        </CharString>
        <CharString name="Egrave">
          -46 246 663 95 callsubr
          12 -575 rmoveto
          191 53 callsubr
          vlineto
          endchar
        </CharString>
        <CharString name="Emacron">
          -46 348 751 389 callgsubr
          -184 -584 rmoveto
          191 53 callsubr
          vlineto
          endchar
        </CharString>
        <CharString name="Eogonek">
          -46 291 268 callgsubr
          106 -1 76 -192 191 155 89 -155 175 184 88 -300 -631 232 -21 -7 hlineto
          367 callsubr
        </CharString>
        <CharString name="Eth">
          25 286 111 449 callgsubr
          193 69 83 -69 187 426 callsubr
          -271 -52 -83 52 -277 240 vlineto
          126 callgsubr
        </CharString>
        <CharString name="Euro">
          13 400 422 rmoveto
          110 5 callgsubr
          -117 hlineto
          -76 -32 -36 -63 hvcurveto
          -119 -45 -74 45 -46 -45 -76 45 -119 vlineto
          -62 32 -37 76 464 callgsubr
          451 callsubr
          108 -116 -96 vlineto
          -32 callgsubr
          -46 hlineto
          -23 1 callsubr
          107 79 76 -79 46 79 74 -79 107 vlineto
          21 6 6 23 vhcurveto
          46 -73 callgsubr
          -98 vlineto
          endchar
        </CharString>
        <CharString name="F">
          -57 354 543 rmoveto
          88 -306 -631 116 267 155 84 -155 192 vlineto
          endchar
        </CharString>
        <CharString name="G">
          -4 378 437 6 callsubr
        </CharString>
        <CharString name="Gbreve">
          -4 262 663 rmoveto
          76 32 36 63 hvcurveto
          38 -102 76 callsubr
          218 -226 6 callsubr
        </CharString>
        <CharString name="H">
          36 293 45 callgsubr
          -274 -130 274 -115 464 callsubr
          269 130 -269 115 631 vlineto
          endchar
        </CharString>
        <CharString name="I">
          145 callgsubr
          endchar
        </CharString>
        <CharString name="Iacute">
          145 callgsubr
          -104 32 127 callgsubr
          endchar
        </CharString>
        <CharString name="Icircumflex">
          145 callgsubr
          -222 32 209 callsubr
        </CharString>
        <CharString name="Idieresis">
          -197 -49 662 177 callgsubr
          -101 -136 rmoveto
          464 callsubr
          631 vlineto
          endchar
        </CharString>
        <CharString name="Idotaccent">
          145 callgsubr
          -119 41 rmoveto
          122 105 -122 hlineto
          endchar
        </CharString>
        <CharString name="Igrave">
          145 callgsubr
          -97 169 324 callgsubr
        </CharString>
        <CharString name="Imacron">
          145 callgsubr
          -209 41 343 callsubr
        </CharString>
        <CharString name="Iogonek">
          -197 103 268 callgsubr
          725 -115 -631 38 -21 -7 hlineto
          367 callsubr
        </CharString>
        <CharString name="J">
          -50 13 221 rmoveto
          -122 -36 callgsubr
          94 -21 callsubr
          532 -116 -516 vlineto
          -32 callgsubr
          -24 -30 callsubr
          106 vlineto
          endchar
        </CharString>
        <CharString name="K">
          6 48 hmoveto
          115 631 -115 hlineto
          370 hmoveto
          323 callsubr
        </CharString>
        <CharString name="L">
          -86 163 88 251 callgsubr
        </CharString>
        <CharString name="Lacute">
          -86 267 800 23 callgsubr
          9 -575 251 callgsubr
        </CharString>
        <CharString name="Lcaron">
          -86 285 575 rmoveto
          55 -86 -183 33 vlineto
          -69 -359 251 callgsubr
        </CharString>
        <CharString name="Lslash">
          -74 167 88 rmoveto
          214 vlineto
          104 49 rlineto
          84 vlineto
          -104 -49 rlineto
          245 -115 -300 vlineto
          -79 -37 rlineto
          -84 vlineto
          79 37 rlineto
          -247 283 88 vlineto
          endchar
        </CharString>
        <CharString name="M">
          141 327 137 rmoveto
          84 306 rlineto
          -443 101 631 -126 vlineto
          -106 -375 -106 375 rlineto
          -126 -631 102 442 hlineto
          84 -305 rlineto
          endchar
        </CharString>
        <CharString name="N">
          122 callgsubr
          endchar
        </CharString>
        <CharString name="NULL">
          -420 endchar
        </CharString>
        <CharString name="Nacute">
          26 173 663 127 callgsubr
          33 -169 264 callsubr
        </CharString>
        <CharString name="Ncaron">
          26 165 662 rmoveto
          117 hlineto
          -26 callgsubr
          233 -168 264 callsubr
        </CharString>
        <CharString name="Ntilde">
          122 callgsubr
          -111 32 rmoveto
          -18 callsubr
          20 vlineto
          178 callsubr
          endchar
        </CharString>
        <CharString name="O">
          9 269 115 -85 callgsubr
        </CharString>
        <CharString name="OE">
          195 282 111 156 callgsubr
          -53 -36 callsubr
          409 -42 callgsubr
          53 136 callgsubr
          112 -436 rmoveto
          198 155 83 -155 182 184 84 -272 -20 vlineto
          13 -15 -21 7 -28 hhcurveto
          -76 129 callgsubr
          77 hlineto
          28 20 7 12 15 hvcurveto
          -19 280 84 vlineto
          endchar
        </CharString>
        <CharString name="Oacute">
          9 371 800 23 callgsubr
          11 -548 -85 callgsubr
        </CharString>
        <CharString name="Ocircumflex">
          9 212 740 15 callsubr
          109 -548 -85 callgsubr
        </CharString>
        <CharString name="Odieresis">
          2 374 767 72 callgsubr
          99 -547 -85 callgsubr
        </CharString>
        <CharString name="Ograve">
          9 254 663 95 callsubr
          109 -548 -85 callgsubr
        </CharString>
        <CharString name="Ohungarumlaut">
          2 324 662 113 callsubr
          85 -547 -85 callgsubr
        </CharString>
        <CharString name="Omacron">
          9 365 741 389 callgsubr
          -96 -547 -85 callgsubr
        </CharString>
        <CharString name="Oslash">
          14 277 109 rmoveto
          -21 -6 -6 -23 vhcurveto
          -62 hlineto
          -21 -7 5 18 -1 hvcurveto
          120 278 rlineto
          -120 139 rmoveto
          123 callsubr
          62 hlineto
          23 6 -6 -21 hvcurveto
          -1 vlineto
          -120 -279 rlineto
          236 409 rmoveto
          -60 hlineto
          -11 -25 rlineto
          3 -12 -15 2 -17 hhcurveto
          -122 157 callsubr
          -433 vlineto
          -28 6 -22 14 -17 vhcurveto
          -23 -52 rlineto
          59 hlineto
          11 25 rlineto
          -3 12 14 -2 16 hhcurveto
          79 callsubr
          433 vlineto
          26 -6 22 -12 16 vhcurveto
          endchar
        </CharString>
        <CharString name="Otilde">
          9 150 683 rmoveto
          178 callsubr
          -18 callsubr
          vlineto
          119 -548 -85 callgsubr
        </CharString>
        <CharString name="P">
          -5 274 347 rmoveto
          -32 callgsubr
          -83 223 83 -73 callgsubr
          -226 115 rmoveto
          464 callsubr
          232 117 vlineto
          451 callsubr
          201 5 callgsubr
          endchar
        </CharString>
        <CharString name="Q">
          9 159 516 rmoveto
          123 callsubr
          53 -73 callgsubr
          -401 vlineto
          -32 callgsubr
          -53 -30 callsubr
          252 -199 rmoveto
          -77 94 rlineto
          35 15 15 31 43 vvcurveto
          188 callsubr
          -122 129 callgsubr
          65 hlineto
          67 -84 rlineto
          endchar
        </CharString>
        <CharString name="R">
          10 163 543 48 callsubr
        </CharString>
        <CharString name="Racute">
          10 367 799 23 callgsubr
          -91 -119 48 callsubr
        </CharString>
        <CharString name="Rcaron">
          10 271 662 rmoveto
          -26 callgsubr
          106 -137 rlineto
          9 -119 48 callsubr
        </CharString>
        <CharString name="S">
          -21 248 115 57 callsubr
        </CharString>
        <CharString name="Sacute">
          -21 156 663 127 callgsubr
          6 57 callgsubr
        </CharString>
        <CharString name="Scaron">
          -21 141 663 rmoveto
          117 hlineto
          -26 callgsubr
          213 57 callgsubr
        </CharString>
        <CharString name="T">
          -74 341 45 callgsubr
          -336 228 callgsubr
          hlineto
          endchar
        </CharString>
        <CharString name="Tcaron">
          -74 230 663 rmoveto
          -26 callgsubr
          106 -137 rlineto
          228 -32 rmoveto
          -336 228 callgsubr
          hlineto
          endchar
        </CharString>
        <CharString name="Thorn">
          8 272 233 rmoveto
          -32 callgsubr
          -78 218 78 -73 callgsubr
          -106 113 rmoveto
          121 -115 464 callsubr
          121 112 vlineto
          77 32 36 62 hvcurveto
          192 5 callgsubr
          endchar
        </CharString>
        <CharString name="U">
          14 272 631 -46 callsubr
        </CharString>
        <CharString name="Uacute">
          14 373 800 23 callgsubr
          12 -32 -46 callsubr
        </CharString>
        <CharString name="Ucircumflex">
          14 216 740 15 callsubr
          108 -32 -46 callsubr
        </CharString>
        <CharString name="Udieresis">
          14 376 767 72 callgsubr
          100 -31 -46 callsubr
        </CharString>
        <CharString name="Ugrave">
          14 263 663 95 callsubr
          103 -32 -46 callsubr
        </CharString>
        <CharString name="Uhungarumlaut">
          4 321 663 113 callsubr
          91 -548 156 callgsubr
          -53 -36 callsubr
          516 -115 -532 -36 callgsubr
          79 callsubr
          532 -115 vlineto
          endchar
        </CharString>
        <CharString name="Umacron">
          14 369 741 389 callgsubr
          -97 -31 -46 callsubr
        </CharString>
        <CharString name="Uogonek">
          14 272 45 callgsubr
          -516 vlineto
          115 callgsubr
          -53 -36 callsubr
          516 -115 -532 -36 callgsubr
          31 -21 -7 hlineto
          66 callgsubr
          -84 hlineto
          405 callsubr
          94 14 -21 callsubr
          532 vlineto
          endchar
        </CharString>
        <CharString name="Uring">
          14 174 750 -14 callsubr
          92 -31 -46 callsubr
        </CharString>
        <CharString name="V">
          -7 289 45 callgsubr
          -83 -510 -81 510 rlineto
          -119 hlineto
          125 -631 rlineto
          151 hlineto
          125 631 rlineto
          endchar
        </CharString>
        <CharString name="W">
          255 551 45 callgsubr
          -71 -512 -82 512 rlineto
          -121 hlineto
          -83 -512 -65 512 rlineto
          -119 hlineto
          111 -631 rlineto
          146 hlineto
          70 445 71 -445 rlineto
          146 hlineto
          111 631 rlineto
          endchar
        </CharString>
        <CharString name="X">
          -4 269 322 rmoveto
          128 309 rlineto
          -124 hlineto
          -67 -208 -67 208 rlineto
          -129 hlineto
          132 -309 -139 -322 rlineto
          123 hlineto
          80 221 79 -221 rlineto
          128 hlineto
          endchar
        </CharString>
        <CharString name="Y">
          -13 404 631 149 callgsubr
        </CharString>
        <CharString name="Yacute">
          -13 362 800 23 callgsubr
          155 -32 149 callgsubr
        </CharString>
        <CharString name="Ydieresis">
          -21 361 775 72 callgsubr
          247 -39 149 callgsubr
        </CharString>
        <CharString name="Z">
          -63 345 631 290 callsubr
        </CharString>
        <CharString name="Zacute">
          -63 344 800 23 callgsubr
          114 279 callgsubr
        </CharString>
        <CharString name="Zcaron">
          -63 245 663 rmoveto
          -26 callgsubr
          106 -137 rlineto
          -105 -120 rmoveto
          141 callsubr
          88 -322 vlineto
          endchar
        </CharString>
        <CharString name="Zdotaccent">
          -63 249 768 391 callsubr
          96 279 callgsubr
        </CharString>
        <CharString name="a">
          -26 177 88 rmoveto
          -60 callgsubr
        </CharString>
        <CharString name="aacute">
          -26 362 660 23 callgsubr
          -72 -435 -35 callgsubr
          endchar
        </CharString>
        <CharString name="abreve">
          -26 177 88 -35 callgsubr
          22 169 rmoveto
          76 callsubr
          102 hlineto
          76 32 36 63 hvcurveto
          38 vlineto
          endchar
        </CharString>
        <CharString name="acircumflex">
          -26 199 600 15 callsubr
          30 -435 -35 callgsubr
          endchar
        </CharString>
        <CharString name="acute">
          24 117 523 127 callgsubr
          endchar
        </CharString>
        <CharString name="adieresis">
          -26 156 646 rmoveto
          -116 -105 116 hlineto
          21 -453 -35 callgsubr
          4 155 rmoveto
          -105 116 105 vlineto
          endchar
        </CharString>
        <CharString name="ae">
          189 182 387 callsubr
          55 vlineto
          89 36 rlineto
          -88 vlineto
          -22 -1 -9 -8 -21 hhcurveto
          215 317 rmoveto
          22 6 -6 -21 hvcurveto
          -90 -101 90 86 callsubr
          176 -194 rmoveto
          10 7 171 5 callgsubr
          -73 hlineto
          338 callgsubr
          -81 113 65 317 callsubr
          21 9 -8 -22 1 hvcurveto
          -86 vlineto
          -202 -83 rlineto
          -105 175 callgsubr
          vlineto
          endchar
        </CharString>
        <CharString name="agrave">
          -26 271 523 95 callsubr
          -435 vmoveto
          -60 callgsubr
        </CharString>
        <CharString name="amacron">
          -26 346 333 callgsubr
          -169 -464 rmoveto
          -60 callgsubr
        </CharString>
        <CharString name="ampersand">
          89 175 84 rmoveto
          -22 -7 31 callsubr
          67 vlineto
          28 9 10 19 13 vhcurveto
          21 13 139 -158 rlineto
          -158 437 rmoveto
          420 callsubr
          39 hlineto
          22 6 -5 -22 hvcurveto
          -76 vlineto
          -36 -18 -15 -38 -25 vhcurveto
          -3 -2 rlineto
          -22 25 -14 20 26 vvcurveto
          381 -473 rmoveto
          -82 95 rlineto
          4 12 2 13 14 vvcurveto
          137 -92 -75 vlineto
          -113 133 21 13 rlineto
          55 35 30 31 74 vvcurveto
          85 453 callgsubr
          -76 vhcurveto
          -103 157 callsubr
          -88 vlineto
          -46 30 -37 39 -47 vhcurveto
          -26 -18 rlineto
          -53 -32 -17 -23 -52 vvcurveto
          -90 -36 callgsubr
          224 hlineto
          13 12 1 2 11 hvcurveto
          34 -38 rlineto
          endchar
        </CharString>
        <CharString name="aogonek">
          233 callgsubr
          79 -254 106 callsubr
          585 -112 -48 hlineto
          -52 callsubr
          37 336 callsubr
        </CharString>
        <CharString name="apostrophemod">
          354 callgsubr
        </CharString>
        <CharString name="approxequal">
          92 336 364 rmoveto
          44 hlineto
          67 25 30 56 hvcurveto
          62 -104 -36 379 callsubr
          -30 -57 hvcurveto
          -62 104 37 vlineto
          22 5 12 24 vhcurveto
          60 18 -71 85 hhcurveto
          -182 vmoveto
          44 hlineto
          67 25 31 56 hvcurveto
          62 -104 -37 379 callsubr
          -29 -57 hvcurveto
          -62 104 37 vlineto
          22 5 11 24 vhcurveto
          60 18 -71 85 hhcurveto
          endchar
        </CharString>
        <CharString name="aring">
          -26 158 617 -14 callsubr
          13 -441 rmoveto
          -60 callgsubr
        </CharString>
        <CharString name="asciicircum">
          138 195 670 rmoveto
          -129 -364 rlineto
          118 hlineto
          85 263 86 -263 rlineto
          118 hlineto
          -129 364 rlineto
          endchar
        </CharString>
        <CharString name="asciitilde">
          161 372 211 rmoveto
          44 hlineto
          67 26 30 56 hvcurveto
          71 -104 -45 vlineto
          -23 -4 -11 -24 vhcurveto
          -60 -24 80 -84 hhcurveto
          -46 hlineto
          -66 -26 -30 -57 hvcurveto
          -71 104 46 vlineto
          22 5 12 25 vhcurveto
          60 22 -80 85 hhcurveto
          endchar
        </CharString>
        <CharString name="asterisk">
          -79 325 486 rmoveto
          -28 85 -28 -9 -26 -8 -20 -10 -16 -10 rlinecurve
          5 18 3 22 26 vvcurveto
          31 -89 -30 vlineto
          -27 4 -23 4 -18 vhcurveto
          -15 10 -20 11 -26 8 -29 9 rcurveline
          -28 -85 29 -9 26 -9 22 -3 18 -1 rlinecurve
          -14 -12 -15 -16 -16 -21 -19 -25 rcurveline
          73 -53 18 24 16 22 10 20 7 18 rlinecurve
          7 -17 10 -20 15 -21 19 -26 rcurveline
          72 53 -18 25 -16 22 -15 16 -15 11 rlinecurve
          18 1 22 4 25 8 rrcurveto
          endchar
        </CharString>
        <CharString name="at">
          324 237 337 rmoveto
          -162 vlineto
          -60 30 -34 67 vhcurveto
          24 hlineto
          39 27 17 37 6 hvcurveto
          -54 166 vlineto
          71 31 36 62 hvcurveto
          310 vlineto
          63 -30 36 -72 vhcurveto
          -428 hlineto
          -72 400 callgsubr
          -470 361 callgsubr
          72 vhcurveto
          356 85 -326 -36 callsubr
          443 vlineto
          22 32 callsubr
          370 hlineto
          22 6 -6 -22 hvcurveto
          -289 vlineto
          -32 callgsubr
          -45 272 -97 -44 hlineto
          29 -9 -24 15 -35 hhcurveto
          -24 hlineto
          -67 -30 -34 -60 hvcurveto
          103 -11 rmoveto
          -77 callgsubr
          28 hlineto
          20 9 -8 -24 hvcurveto
          -128 vlineto
          -24 -9 -8 -20 vhcurveto
          -28 hlineto
          -21 -6 5 21 hvcurveto
          endchar
        </CharString>
        <CharString name="atilde">
          -26 131 553 rmoveto
          178 callsubr
          -18 callsubr
          vlineto
          46 -445 rmoveto
          -60 callgsubr
        </CharString>
        <CharString name="b">
          -26 245 355 callgsubr
          -30 hlineto
          -21 -10 9 24 hvcurveto
          249 vlineto
          25 10 9 21 vhcurveto
          30 -73 callgsubr
          -19 115 rmoveto
          -36 -24 -14 -28 -10 hvcurveto
          219 -113 -669 112 45 vlineto
          -30 9 25 -15 37 hhcurveto
          30 hlineto
          72 31 36 63 hvcurveto
          294 275 callsubr
        </CharString>
        <CharString name="backslash">
          -24 16 700 rmoveto
          283 -803 rlineto
          102 hlineto
          -283 803 rlineto
          endchar
        </CharString>
        <CharString name="bar">
          -203 53 769 rmoveto
          -909 107 909 vlineto
          endchar
        </CharString>
        <CharString name="braceleft">
          -125 217 674 rmoveto
          20 8 8 22 vhcurveto
          40 83 -81 hlineto
          -79 -25 -43 -59 hvcurveto
          -228 vlineto
          -70 -23 -31 -55 vhcurveto
          -14 -83 14 hlineto
          55 23 -32 -69 hvcurveto
          -229 vlineto
          -60 25 -43 79 vhcurveto
          81 84 -40 hlineto
          -22 -8 8 20 hvcurveto
          246 vlineto
          69 -27 42 -49 5 vhcurveto
          47 8 29 39 76 vvcurveto
          endchar
        </CharString>
        <CharString name="braceright">
          -125 77 435 rmoveto
          -76 30 -39 47 -8 vhcurveto
          -49 -5 -28 -42 -69 vvcurveto
          -246 vlineto
          -20 -8 -8 -22 vhcurveto
          -39 -84 81 hlineto
          78 25 43 60 hvcurveto
          229 vlineto
          69 23 32 56 vhcurveto
          14 83 -14 hlineto
          -56 -23 31 70 hvcurveto
          228 vlineto
          59 -25 43 -78 vhcurveto
          -81 -83 39 hlineto
          22 8 -8 -20 hvcurveto
          endchar
        </CharString>
        <CharString name="bracketleft">
          -107 266 697 rmoveto
          88 -213 -948 213 88 -97 772 vlineto
          endchar
        </CharString>
        <CharString name="bracketright">
          -107 247 785 rmoveto
          -213 -88 97 -772 -97 -88 213 hlineto
          endchar
        </CharString>
        <CharString name="breve">
          24 279 660 rmoveto
          76 callsubr
          102 hlineto
          76 32 36 63 hvcurveto
          38 vlineto
          endchar
        </CharString>
        <CharString name="brokenbar">
          -203 48 254 rmoveto
          -350 116 350 vlineto
          122 vmoveto
          349 -116 -349 vlineto
          endchar
        </CharString>
        <CharString name="bullet">
          -24 62 321 rmoveto
          -75 61 -61 75 75 61 61 75 75 -61 61 -75 -75 -61 -61 -75 vhcurveto
          endchar
        </CharString>
        <CharString name="c">
          -40 352 326 rmoveto
          66 5 callgsubr
          -98 hlineto
          -7 callsubr
          vlineto
          endchar
        </CharString>
        <CharString name="cacute">
          -40 353 660 23 callgsubr
          -95 -32 rmoveto
          -7 callsubr
          111 66 5 callgsubr
          endchar
        </CharString>
        <CharString name="caron">
          24 163 523 rmoveto
          117 hlineto
          -26 callgsubr
          endchar
        </CharString>
        <CharString name="ccaron">
          -40 251 523 rmoveto
          -26 callgsubr
          106 -137 rlineto
          11 -32 rmoveto
          -7 callsubr
          111 66 5 callgsubr
          endchar
        </CharString>
        <CharString name="ccedilla">
          -40 145 224 callgsubr
          207 375 rmoveto
          66 5 callgsubr
          -98 hlineto
          -7 callsubr
          vlineto
          endchar
        </CharString>
        <CharString name="cedilla">
          24 204 224 callgsubr
          endchar
        </CharString>
        <CharString name="cent">
          -40 352 326 rmoveto
          66 vlineto
          61 -30 35 -71 3 vhcurveto
          78 -109 -78 vlineto
          -75 -1 -31 -36 -62 vvcurveto
          -293 vlineto
          -62 31 -36 75 -1 vhcurveto
          -77 109 77 vlineto
          71 3 30 35 61 vvcurveto
          67 -111 -51 vlineto
          -32 callgsubr
          -36 171 callsubr
          36 318 callsubr
          vlineto
          endchar
        </CharString>
        <CharString name="circumflex">
          24 57 523 209 callsubr
        </CharString>
        <CharString name="colon">
          -230 34 344 rmoveto
          -197 122 197 vlineto
          endchar
        </CharString>
        <CharString name="comma">
          266 callgsubr
          endchar
        </CharString>
        <CharString name="copyright">
          302 691 340 rmoveto
          183 -59 108 -170 vhcurveto
          -192 hlineto
          -171 -58 -108 -183 hvcurveto
          -54 vlineto
          -184 58 -102 171 vhcurveto
          192 hlineto
          170 59 102 184 hvcurveto
          -406 -209 rmoveto
          -110 -40 64 136 hvcurveto
          72 vlineto
          136 40 70 110 vhcurveto
          162 hlineto
          110 39 -70 -136 hvcurveto
          -72 vlineto
          -136 -39 -64 -110 vhcurveto
          -38 172 rmoveto
          -19 -5 -5 -20 vhcurveto
          -36 hlineto
          -20 -5 5 19 hvcurveto
          141 vlineto
          19 5 5 20 vhcurveto
          36 hlineto
          20 5 -5 -19 hvcurveto
          -28 90 43 vlineto
          52 -27 29 -61 vhcurveto
          -89 hlineto
          -62 -27 -29 -52 hvcurveto
          -171 vlineto
          -52 27 -30 62 vhcurveto
          89 hlineto
          61 27 30 52 hvcurveto
          43 -90 vlineto
          endchar
        </CharString>
        <CharString name="currency">
          96 239 182 rmoveto
          -37 -14 7 44 hvcurveto
          132 vlineto
          44 14 7 37 vhcurveto
          41 hlineto
          37 15 -7 -44 hvcurveto
          -132 vlineto
          -44 -15 -7 -37 vhcurveto
          150 189 rmoveto
          27 -4 24 -8 19 vhcurveto
          45 45 -70 70 -61 -60 rlineto
          1 -8 -9 0 -10 hhcurveto
          -90 hlineto
          -12 -10 -1 -1 -10 hvcurveto
          -62 61 -71 -70 51 -51 rlineto
          -7 -18 -3 -21 -25 vvcurveto
          -144 vlineto
          -21 2 -19 5 -16 vhcurveto
          -48 -48 71 -71 53 53 rlineto
          -3 12 14 -1 15 hhcurveto
          90 hlineto
          13 12 1 2 11 hvcurveto
          52 -52 70 71 -42 42 rlineto
          6 17 3 21 24 vvcurveto
          endchar
        </CharString>
        <CharString name="d">
          -26 177 387 callsubr
          262 226 callsubr
          -25 hvcurveto
          -249 196 callsubr
          31 581 rmoveto
          -219 vlineto
          230 callsubr
          vlineto
          endchar
        </CharString>
        <CharString name="dagger">
          -31 382 472 rmoveto
          406 callgsubr
          -498 115 498 130 hlineto
          endchar
        </CharString>
        <CharString name="daggerdbl">
          -7 394 388 rmoveto
          84 406 callgsubr
          -294 -130 -83 130 -159 115 159 130 83 -130 294 vlineto
          endchar
        </CharString>
        <CharString name="danda">
          -58 236 662 414 callsubr
          endchar
        </CharString>
        <CharString name="dcaron">
          7 177 387 callsubr
          262 226 callsubr
          -25 hvcurveto
          -249 196 callsubr
          31 362 rmoveto
          230 callsubr
          -114 vlineto
          156 hmoveto
          457 callsubr
          endchar
        </CharString>
        <CharString name="dcroat">
          -21 182 132 callsubr
          192 523 rmoveto
          -47 58 -114 -58 -74 -66 74 -96 hlineto
          408 callgsubr
          -293 366 callsubr
          545 47 vlineto
          endchar
        </CharString>
        <CharString name="degree">
          -8 359 533 rmoveto
          62 -30 36 -76 vhcurveto
          -97 hlineto
          -77 -29 -36 -62 hvcurveto
          -104 vlineto
          -62 29 -36 77 vhcurveto
          97 hlineto
          76 30 36 62 hvcurveto
          -105 6 rmoveto
          -21 -7 -5 -22 vhcurveto
          -41 hlineto
          -22 -7 5 21 hvcurveto
          92 vlineto
          20 243 callsubr
          41 hlineto
          22 7 -6 -20 hvcurveto
          endchar
        </CharString>
        <CharString name="dieresis">
          24 62 541 177 callgsubr
          endchar
        </CharString>
        <CharString name="divide">
          27 25 270 448 callsubr
          143 152 rmoveto
          -95 111 95 vlineto
          -111 -297 rmoveto
          -96 111 96 vlineto
          endchar
        </CharString>
        <CharString name="dollar">
          -21 180 362 rmoveto
          -22 -7 31 callsubr
          127 86 callsubr
          38 -73 callgsubr
          -72 116 88 324 callsubr
          -76 vhcurveto
          79 -109 -79 -1 vlineto
          -77 400 callgsubr
          -155 vlineto
          -63 28 -37 75 vhcurveto
          81 -73 callgsubr
          -135 vlineto
          -32 callgsubr
          -38 -30 callsubr
          71 -115 -87 vlineto
          -62 31 -36 76 -1 vhcurveto
          -79 109 79 1 vlineto
          -24 callgsubr
          165 vlineto
          63 -30 35 -75 vhcurveto
          endchar
        </CharString>
        <CharString name="dotaccent">
          24 161 539 rmoveto
          122 105 -122 hlineto
          endchar
        </CharString>
        <CharString name="dotlessi">
          134 callgsubr
          endchar
        </CharString>
        <CharString name="dottedcircle">
          240 139 517 rmoveto
          -26 18 -19 26 26 18 19 26 25 -18 19 -26 -26 -18 -19 -25 vhcurveto
          -82 -110 rmoveto
          -25 20 -19 26 24 20 19 25 25 -20 19 -24 -26 -20 -19 -25 vhcurveto
          -13 -126 rmoveto
          -25 19 -18 25 26 18 18 458 callsubr
          52 -116 rmoveto
          -26 18 -18 26 25 19 18 26 25 -19 19 -25 -26 -18 -19 -25 vhcurveto
          101 -75 rmoveto
          -26 19 -20 26 25 19 20 26 24 -19 20 -25 -26 -19 -20 -24 vhcurveto
          127 -16 rmoveto
          -26 18 -18 26 26 19 18 26 26 -19 18 -26 -26 -18 -18 -26 vhcurveto
          121 53 rmoveto
          -26 19 -18 25 25 20 18 26 25 -20 19 -25 -25 -19 -19 -25 vhcurveto
          73 98 rmoveto
          -25 19 -19 26 24 19 19 25 26 -19 19 -24 -26 -19 -19 -26 vhcurveto
          10 134 rmoveto
          -26 18 -18 26 25 19 18 26 26 -19 18 -25 -26 -18 -18 -26 vhcurveto
          -50 118 rmoveto
          -25 19 -19 25 26 18 19 458 callsubr
          -95 68 rmoveto
          -24 19 -20 26 25 18 20 24 26 -18 19 -25 -26 -19 -19 -26 vhcurveto
          -126 15 rmoveto
          -26 18 -18 26 26 18 18 26 26 -18 18 -26 -26 -18 -18 -26 vhcurveto
          endchar
        </CharString>
        <CharString name="doubledanda">
          140 236 662 414 callsubr
          198 693 414 callsubr
          endchar
        </CharString>
        <CharString name="dvA">
          181 621 45 callgsubr
          -181 -94 callsubr
          68 vlineto
          endchar
        </CharString>
        <CharString name="dvAA">
          392 831 45 callgsubr
          -391 -94 callsubr
          97 -548 219 callsubr
        </CharString>
        <CharString name="dvAI">
          16 456 45 callgsubr
          -69 165 callgsubr
          -292 34 callgsubr
        </CharString>
        <CharString name="dvAU">
          392 831 45 callgsubr
          -70 hlineto
          -31 195 300 callgsubr
          -139 hlineto
          130 -117 47 -42 28 -21 23 -15 rlinecurve
          -201 -94 callsubr
          97 -548 219 callsubr
        </CharString>
        <CharString name="dvAbbreviationsign">
          -48 56 311 rmoveto
          -89 51 -47 79 78 53 47 89 89 -53 47 -78 -79 -51 -47 -89 vhcurveto
          86 hmoveto
          45 14 18 30 29 15 -18 -45 -45 -16 -18 -28 -29 -15 18 45 vhcurveto
          endchar
        </CharString>
        <CharString name="dvAcandra">
          139 621 45 callgsubr
          -181 -94 callsubr
          68 vlineto
          -30 285 102 callsubr
        </CharString>
        <CharString name="dvAnusvara">
          -420 -152 832 345 callsubr
        </CharString>
        <CharString name="dvAnusvara.amI">
          -420 24 762 420 callgsubr
        </CharString>
        <CharString name="dvAvagraha">
          -25 330 552 rmoveto
          79 -174 vlineto
          -77 -28 -30 -62 hvcurveto
          -144 405 callgsubr
          -172 220 callgsubr
          -34 hlineto
          -18 107 callsubr
          -61 29 callgsubr
          101 hlineto
          78 14 callgsubr
          199 433 callsubr
          -57 hlineto
          -21 -6 5 21 hvcurveto
          118 -92 callgsubr
          endchar
        </CharString>
        <CharString name="dvB">
          -161 338 45 callgsubr
          -358 -83 358 hlineto
          -195 -470 rmoveto
          195 74 hlineto
          0 -56 103 -29 45 vhcurveto
          -61 267 callsubr
          35 -30 67 vhcurveto
          12 111 326 callsubr
          endchar
        </CharString>
        <CharString name="dvBA">
          49 182 161 151 callsubr
          206 470 rmoveto
          -509 -83 327 342 callgsubr
          -29 45 vhcurveto
          -61 101 rlineto
          74 78 -119 hlineto
          -78 -28 -29 -62 hvcurveto
          -210 302 callgsubr
        </CharString>
        <CharString name="dvBH">
          1 250 callgsubr
          120 -92 callsubr
          63 hlineto
          278 83 rmoveto
          -164 119 hlineto
          -58 callsubr
          -106 189 callgsubr
          -149 18 callsubr
          157 164 vlineto
          endchar
        </CharString>
        <CharString name="dvBHA">
          200 247 189 53 callgsubr
        </CharString>
        <CharString name="dvBH_LA">
          585 250 callgsubr
          121 -92 callsubr
          63 hlineto
          776 295 rmoveto
          -607 -83 429 -69 -87 hlineto
          -80 callsubr
          -53 -33 -18 -42 -11 hvcurveto
          -93 118 hlineto
          -58 callsubr
          -105 189 callgsubr
          -150 18 callsubr
          158 88 -245 vlineto
          452 callgsubr
          91 84 -56 -56 callsubr
          258 -54 callsubr
          4 -7 -21 hvcurveto
          -176 114 176 vlineto
          21 4 465 callgsubr
          -397 -52 callgsubr
          64 hlineto
          endchar
        </CharString>
        <CharString name="dvBH_NA">
          565 634 189 -100 callsubr
          -387 -208 51 callgsubr
          111 vlineto
          22 -81 callsubr
          63 hlineto
          758 304 rmoveto
          -565 -83 383 -69 -277 hlineto
          -69 -30 -22 -48 -6 hvcurveto
          -80 128 hlineto
          -58 callsubr
          -115 189 callgsubr
          -140 18 callsubr
          149 79 -149 261 callgsubr
          78 hlineto
          82 45 callsubr
        </CharString>
        <CharString name="dvBH_R">
          58 284 -63 rmoveto
          214 227 rlineto
          122 vlineto
          -332 -349 rlineto
          81 313 51 callgsubr
          62 -92 callsubr
          63 hlineto
          114 83 rmoveto
          116 vlineto
          -58 callsubr
          -103 189 callgsubr
          -91 18 callsubr
          99 137 83 vlineto
          endchar
        </CharString>
        <CharString name="dvBH_RA">
          200 247 250 51 callgsubr
          62 -92 callsubr
          63 hlineto
          393 293 rmoveto
          -182 -210 -97 116 hlineto
          -58 callsubr
          -103 189 callgsubr
          -91 18 callsubr
          99 97 -93 267 callgsubr
          -91 callsubr
        </CharString>
        <CharString name="dvBH_R_YA">
          517 775 -57 callsubr
          147 447 callgsubr
          82 287 callgsubr
          90 hlineto
          -528 -298 51 callgsubr
          60 -92 callsubr
          63 hlineto
          710 295 rmoveto
          -538 -83 126 156 callsubr
          -70 -4 callgsubr
          -197 118 hlineto
          -58 callsubr
          -105 189 callgsubr
          -89 18 callsubr
          97 97 -92 vlineto
          -292 -307 rlineto
          118 hlineto
          183 190 rlineto
          -34 16 34 -15 56 hhcurveto
          163 -64 callsubr
        </CharString>
        <CharString name="dvBH_VA">
          396 250 callgsubr
          121 -92 callsubr
          63 hlineto
          589 295 rmoveto
          -420 -83 239 277 callgsubr
          -63 -31 -19 -41 -9 hvcurveto
          -91 118 hlineto
          -58 callsubr
          -105 189 callgsubr
          -150 18 callsubr
          158 88 -158 vlineto
          202 callgsubr
        </CharString>
        <CharString name="dvBH_YA">
          499 757 195 170 callsubr
          141 100 callsubr
          88 107 callgsubr
          -510 -359 51 callgsubr
          115 -92 callsubr
          63 hlineto
          692 301 rmoveto
          -499 417 callsubr
          -76 -49 callsubr
          -179 124 hlineto
          -58 callsubr
          -111 -98 260 callsubr
          -144 18 callsubr
          152 79 -152 vlineto
          -76 callgsubr
          69 vlineto
          endchar
        </CharString>
        <CharString name="dvB_BA">
          318 451 161 2 callgsubr
          72 -112 rcurveline
          -366 hmoveto
          0 callgsubr
          73 -112 rcurveline
          472 470 rmoveto
          -778 -83 596 -223 hlineto
          -89 6 -32 -38 callsubr
          -116 vlineto
          -41 6 -27 -38 callsubr
          412 callsubr
          132 hlineto
          30 18 7 15 11 hvcurveto
          -15 17 25 -7 33 hhcurveto
          154 callgsubr
          -85 -15 callgsubr
        </CharString>
        <CharString name="dvB_BHA">
          467 281 callgsubr
          245 -359 rmoveto
          -23 -7 -5 -21 vhcurveto
          -34 155 callgsubr
          120 -92 callsubr
          63 hlineto
          -329 -174 2 callgsubr
          73 -112 rcurveline
          621 470 rmoveto
          -182 -213 -97 119 357 callgsubr
          -98 hlineto
          -77 -29 -34 -62 hvcurveto
          -56 114 43 -92 callgsubr
          28 -16 callsubr
          -106 189 callgsubr
          -55 vlineto
          -41 6 -27 -38 callsubr
          412 callsubr
          132 hlineto
          30 19 7 16 11 253 callsubr
          88 157 callgsubr
          157 97 -335 -91 callsubr
        </CharString>
        <CharString name="dvB_BH_RA">
          464 281 callgsubr
          242 -298 rmoveto
          -23 -7 -5 -21 vhcurveto
          -34 -83 callgsubr
          62 -92 callgsubr
          63 hlineto
          -356 29 rmoveto
          11 -14 20 -37 24 421 callsubr
          -101 -90 callgsubr
          749 442 rmoveto
          -181 -210 -98 116 46 callsubr
          -103 189 callgsubr
          -58 vlineto
          -41 6 -27 146 callsubr
          -29 45 vhcurveto
          -61 267 callsubr
          35 -30 67 vhcurveto
          160 hlineto
          48 30 23 39 14 hvcurveto
          -1 8 9 0 10 hhcurveto
          88 157 callgsubr
          99 98 -93 182 callsubr
        </CharString>
        <CharString name="dvB_DA">
          243 178 161 378 callgsubr
          73 -112 rcurveline
          336 236 rmoveto
          151 68 83 -703 -83 521 -69 -93 vlineto
          268 callsubr
          -63 424 callgsubr
          -61 101 rlineto
          75 284 callgsubr
          412 callsubr
          132 hlineto
          30 19 8 16 10 hvcurveto
          -16 19 29 -8 40 hhcurveto
          273 callsubr
          -90 114 277 -114 385 callgsubr
          -32 hlineto
          -22 89 callsubr
          endchar
        </CharString>
        <CharString name="dvB_DHA">
          343 281 callgsubr
          -84 -387 2 callgsubr
          73 -112 rcurveline
          500 470 rmoveto
          -182 -436 hlineto
          -4 callsubr
          -20 vlineto
          -41 6 -27 -38 callsubr
          412 callsubr
          132 hlineto
          30 19 8 16 11 hvcurveto
          -16 19 28 -8 40 hhcurveto
          140 97 callsubr
          -91 callsubr
        </CharString>
        <CharString name="dvB_DH_VA">
          551 281 callgsubr
          -84 -387 2 callgsubr
          73 -112 rcurveline
          705 470 rmoveto
          -397 -83 215 280 callgsubr
          181 130 callgsubr
          -48 callsubr
          -193 vlineto
          -4 callsubr
          -20 vlineto
          -41 6 -27 -38 callsubr
          412 callsubr
          132 hlineto
          30 19 8 16 11 hvcurveto
          -16 19 28 -8 40 hhcurveto
          147 hlineto
          30 18 7 15 11 hvcurveto
          -15 17 25 -7 33 296 callgsubr
          68 vlineto
          endchar
        </CharString>
        <CharString name="dvB_JA">
          432 178 161 292 callgsubr
          620 470 rmoveto
          -895 -83 713 -69 -193 -290 92 callsubr
          219 79 callgsubr
          vlineto
          endchar
        </CharString>
        <CharString name="dvB_JHA">
          459 729 316 rmoveto
          -270 hlineto
          -21 -6 5 21 hvcurveto
          33 -92 callgsubr
          166 147 104 hlineto
          -547 -422 221 callgsubr
          204 vlineto
          5 -16 14 -33 29 -54 66 -125 rcurveline
          -3 -3 -4 -1 -8 hhcurveto
          657 505 rmoveto
          -931 -83 532 -69 -88 hlineto
          124 callgsubr
          -59 vlineto
          -62 29 -30 77 vhcurveto
          73 -16 callsubr
          -63 -49 callsubr
          -64 85 -113 -66 hlineto
          -132 260 rlineto
          69 78 -114 hlineto
          -68 348 callsubr
          -235 vlineto
          -71 34 -29 68 vhcurveto
          132 hlineto
          20 15 5 9 10 hvcurveto
          -85 113 71 99 vlineto
          77 29 153 callsubr
          93 -237 304 callsubr
        </CharString>
        <CharString name="dvB_J_YA">
          745 1010 193 callsubr
          149 100 callsubr
          80 107 callgsubr
          -832 -387 292 callgsubr
          936 470 rmoveto
          -1211 -83 799 156 callsubr
          -68 357 callsubr
          -292 -232 92 callsubr
          160 80 -160 vlineto
          -76 callgsubr
          68 vlineto
          endchar
        </CharString>
        <CharString name="dvB_JxA">
          443 429 -105 8 callgsubr
          -244 161 2 callgsubr
          73 -112 rcurveline
          597 470 rmoveto
          -903 -83 721 187 callgsubr
          -21 398 callgsubr
          -115 -184 vlineto
          -72 6 -19 -38 callsubr
          412 callsubr
          135 hlineto
          28 19 6 14 11 hvcurveto
          -14 17 24 -6 32 hhcurveto
          95 207 callsubr
          219 79 69 callsubr
        </CharString>
        <CharString name="dvB_LA">
          444 185 161 2 callgsubr
          72 -112 rcurveline
          599 470 rmoveto
          -904 -83 726 -69 374 callgsubr
          -102 hlineto
          -68 -34 -29 -71 hvcurveto
          -54 vlineto
          -89 6 -32 -38 callsubr
          -210 vlineto
          -70 34 -30 68 456 callsubr
          -57 2 29 -28 75 hhcurveto
          91 84 -56 hlineto
          -21 -7 5 22 hvcurveto
          258 vlineto
          23 7 5 21 vhcurveto
          30 hlineto
          23 58 callgsubr
        </CharString>
        <CharString name="dvB_L_YA">
          765 1023 223 callsubr
          -838 -387 2 callgsubr
          72 -112 rcurveline
          920 470 rmoveto
          -1225 -83 812 156 callsubr
          -62 -49 callsubr
          -187 hlineto
          -33 -15 -15 -27 -3 hvcurveto
          -3 hlineto
          27 -3 -15 15 -33 hhcurveto
          -102 hlineto
          -68 -34 -30 -70 hvcurveto
          -15 vlineto
          -69 6 -39 -38 callsubr
          -210 vlineto
          -70 34 -30 68 456 callsubr
          -57 2 29 -28 75 hhcurveto
          91 84 -56 hlineto
          -21 -7 5 22 hvcurveto
          205 -54 callgsubr
          30 hlineto
          23 169 callgsubr
          -159 113 159 vlineto
          21 5 465 callgsubr
          -166 hlineto
          -76 callgsubr
          69 vlineto
          endchar
        </CharString>
        <CharString name="dvB_NA">
          435 504 189 117 callsubr
          -319 -236 2 callgsubr
          73 -112 rcurveline
          589 470 rmoveto
          -895 -83 713 382 callsubr
          -116 vlineto
          -41 6 -27 -38 callsubr
          412 callsubr
          132 hlineto
          30 18 7 16 11 hvcurveto
          -16 19 29 -7 40 hhcurveto
          78 hlineto
          82 45 callsubr
        </CharString>
        <CharString name="dvB_R">
          -109 -20 45 callgsubr
          -83 349 83 vlineto
          -174 -442 326 callsubr
          -114 199 rmoveto
          188 callgsubr
          67 hlineto
          -97 -132 rlineto
          120 hlineto
          96 134 rlineto
          83 vlineto
          -14 14 -33 78 -29 45 -61 101 rcurveline
          252 callgsubr
          endchar
        </CharString>
        <CharString name="dvB_RA">
          49 182 178 299 callsubr
          229 453 rmoveto
          -509 -83 327 -208 hlineto
          -89 6 -32 0 vhcurveto
          -60 90 -61 92 281 callsubr
          -193 270 callsubr
        </CharString>
        <CharString name="dvB_SA">
          443 701 352 rmoveto
          -95 hlineto
          -37 callgsubr
          87 hlineto
          -516 -387 2 callgsubr
          72 -112 rcurveline
          598 470 rmoveto
          -903 -83 495 hlineto
          125 callsubr
          -132 hlineto
          -89 6 -32 -38 callsubr
          -210 vlineto
          -70 34 -30 68 456 callsubr
          -57 2 29 -28 75 hhcurveto
          98 hlineto
          77 14 callgsubr
          109 -113 -95 vlineto
          -22 -6 -5 -19 vhcurveto
          -30 hlineto
          -21 -7 5 22 hvcurveto
          165 278 -270 -15 callgsubr
        </CharString>
        <CharString name="dvB_SHA">
          447 275 45 callgsubr
          -295 -83 295 hlineto
          -84 -387 rmoveto
          -22 365 callgsubr
          131 473 rmoveto
          -77 -28 -34 -62 hvcurveto
          -82 113 69 322 callgsubr
          53 -114 -63 hlineto
          -89 6 -32 146 callsubr
          -29 45 vhcurveto
          -61 101 rlineto
          75 78 -120 hlineto
          268 callsubr
          143 callgsubr
          34 -30 67 vhcurveto
          131 hlineto
          14 11 2 4 8 hvcurveto
          -56 2 30 -28 74 hhcurveto
          28 callsubr
          100 -113 -86 119 callgsubr
          148 74 vlineto
          85 38 103 callgsubr
        </CharString>
        <CharString name="dvB_TA">
          267 185 161 2 callgsubr
          72 -112 rcurveline
          428 470 rmoveto
          -733 -83 551 -69 -115 -96 callgsubr
          -63 vlineto
          -89 6 -32 -38 callsubr
          -210 vlineto
          -70 34 -30 68 456 callsubr
          -57 2 29 -28 75 hhcurveto
          54 callgsubr
        </CharString>
        <CharString name="dvB_VA">
          257 185 161 2 callgsubr
          73 -112 rcurveline
          411 470 rmoveto
          -717 -83 535 169 callsubr
          -48 callsubr
          -93 vlineto
          -72 6 -19 -38 callsubr
          412 callsubr
          135 hlineto
          28 19 6 14 11 hvcurveto
          -14 17 24 -6 32 296 callgsubr
          68 vlineto
          endchar
        </CharString>
        <CharString name="dvB_YA">
          369 627 215 callsubr
          -442 -387 2 callgsubr
          73 -112 rcurveline
          523 470 rmoveto
          -829 -83 416 hlineto
          37 -11 callsubr
          -110 hlineto
          -41 6 -27 -38 callsubr
          412 callsubr
          132 hlineto
          30 19 7 16 11 253 callsubr
          173 callsubr
        </CharString>
        <CharString name="dvC">
          -195 171 369 rmoveto
          -60 callsubr
          33 82 -233 176 callsubr
          169 83 -130 -90 callgsubr
          -192 442 rmoveto
          -83 349 83 vlineto
          endchar
        </CharString>
        <CharString name="dvCA">
          16 456 631 111 callgsubr
        </CharString>
        <CharString name="dvCH">
          169 609 45 callgsubr
          -629 -83 73 hlineto
          41 callsubr
          268 hlineto
          79 37 -31 callsubr
          288 vlineto
          67 -37 24 -71 vhcurveto
          -62 hlineto
          -71 -36 -24 -67 hvcurveto
          462 callsubr
          36 -25 62 vhcurveto
          38 74 -16 hlineto
          -21 -6 5 21 hvcurveto
          92 -80 callgsubr
          406 hlineto
          endchar
        </CharString>
        <CharString name="dvCHA">
          169 354 478 rmoveto
          -57 -4 -29 -26 -60 vvcurveto
          462 callsubr
          36 -25 62 vhcurveto
          38 74 -16 hlineto
          -21 -6 5 21 hvcurveto
          92 -80 callgsubr
          151 hlineto
          255 hmoveto
          83 -629 -83 73 vlineto
          41 callsubr
          268 339 callsubr
        </CharString>
        <CharString name="dvCH_R">
          -420 endchar
        </CharString>
        <CharString name="dvCH_RA">
          169 354 478 rmoveto
          -57 -4 -29 -26 -60 vvcurveto
          462 callsubr
          36 -25 62 vhcurveto
          38 74 -16 hlineto
          -21 -6 5 21 hvcurveto
          92 -80 callgsubr
          151 hlineto
          255 hmoveto
          83 -629 -83 73 vlineto
          41 callsubr
          60 hlineto
          151 callgsubr
          49 339 callsubr
        </CharString>
        <CharString name="dvCH_R_YA">
          -13 callgsubr
          58 hlineto
          151 callgsubr
          51 138 callsubr
        </CharString>
        <CharString name="dvCH_YA">
          -13 callgsubr
          268 138 callsubr
        </CharString>
        <CharString name="dvC_CA">
          234 674 45 callgsubr
          -695 -83 514 262 callsubr
          -22 vhcurveto
          -46 402 callgsubr
          32 82 -199 -82 38 344 callsubr
          -164 vlineto
          -25 -51 callgsubr
          -44 402 callgsubr
          8 82 -209 -82 72 hlineto
          -8 -8 -5 -13 -18 179 callgsubr
          84 hlineto
          29 19 8 15 12 hvcurveto
          -16 17 25 -7 33 hhcurveto
          73 54 callsubr
        </CharString>
        <CharString name="dvC_CHA">
          399 584 478 rmoveto
          -56 -5 -30 -25 -60 vvcurveto
          462 callsubr
          37 -25 61 vhcurveto
          39 74 -17 407 callgsubr
          19 -16 callsubr
          -267 vlineto
          -23 -6 -5 -21 vhcurveto
          -220 -90 callgsubr
          131 -68 callgsubr
          35 82 172 callgsubr
          135 vlineto
          30 8 3 41 -2 vhcurveto
          -5 1 rlineto
          150 hlineto
          255 hmoveto
          83 -859 -83 303 231 callgsubr
          -6 5 23 hvcurveto
          180 -68 callgsubr
          26 82 -226 176 callsubr
          75 hlineto
          18 14 3 5 11 hvcurveto
          -60 4 37 -26 73 hhcurveto
          269 hlineto
          78 37 -31 callsubr
          288 vlineto
          60 -29 25 -56 5 vhcurveto
          70 vlineto
          endchar
        </CharString>
        <CharString name="dvC_CH_VA">
          395 580 478 rmoveto
          -57 -4 -29 -26 -60 vvcurveto
          462 callsubr
          36 -25 62 vhcurveto
          38 74 -16 407 callgsubr
          18 42 callgsubr
          -267 vlineto
          -23 -7 -5 -21 vhcurveto
          -219 hlineto
          136 callsubr
          131 vlineto
          23 6 5 22 vhcurveto
          35 82 -35 hlineto
          136 callsubr
          135 vlineto
          30 8 3 41 -2 vhcurveto
          -5 1 rlineto
          151 hlineto
          -96 -647 rmoveto
          -19 -7 439 callgsubr
          99 -71 hlineto
          -22 -8 -6 -19 vhcurveto
          278 647 rmoveto
          83 -855 -83 299 231 callgsubr
          -7 90 callsubr
          26 82 -225 -82 71 hlineto
          -8 -8 -5 -12 -19 vvcurveto
          423 callgsubr
          34 -30 68 vhcurveto
          75 hlineto
          18 14 3 5 11 hvcurveto
          4 -57 33 -26 65 -3 rrcurveto
          -5 -6 -3 -10 -13 vvcurveto
          -57 vlineto
          -62 32 -28 62 vhcurveto
          84 hlineto
          19 12 269 callsubr
          -84 91 249 vlineto
          64 5 31 30 64 vvcurveto
          288 vlineto
          59 -28 305 callsubr
        </CharString>
        <CharString name="dvC_MA">
          433 692 432 rmoveto
          -98 116 98 hlineto
          -212 -359 rmoveto
          -23 -7 350 callsubr
          71 hlineto
          393 282 rmoveto
          -893 -83 500 -116 -98 241 callsubr
          -147 vlineto
          75 callsubr
          33 21 10 18 10 hvcurveto
          -19 18 30 -9 45 hhcurveto
          88 hlineto
          82 33 330 callsubr
          68 vlineto
          endchar
        </CharString>
        <CharString name="dvC_NA">
          401 470 189 rmoveto
          -23 -7 -5 -21 61 callgsubr
          53 hlineto
          371 234 rmoveto
          -861 -83 680 -69 -278 -96 callgsubr
          -194 vlineto
          75 callsubr
          33 21 10 18 10 hvcurveto
          -19 18 30 -9 45 328 callsubr
        </CharString>
        <CharString name="dvC_R">
          -151 171 369 rmoveto
          222 callgsubr
          118 188 rlineto
          52 -91 vlineto
          -94 callgsubr
          -192 417 rmoveto
          -83 310 83 vlineto
          endchar
        </CharString>
        <CharString name="dvC_RA">
          19 456 45 callgsubr
          -477 -83 295 -332 hlineto
          450 callsubr
          -47 -90 callgsubr
          155 vlineto
          222 callgsubr
          103 164 rlineto
          -110 -15 callgsubr
        </CharString>
        <CharString name="dvC_YA">
          335 593 87 callgsubr
          -795 -83 383 67 callgsubr
          -188 hlineto
          75 callsubr
          34 20 10 19 10 hvcurveto
          -20 19 31 -9 43 hhcurveto
          124 callsubr
        </CharString>
        <CharString name="dvCandrabindu">
          160 callgsubr
        </CharString>
        <CharString name="dvD">
          0 245 hmoveto
          113 403 callgsubr
          -87 hlineto
          68 callsubr
          170 227 callsubr
          -96 callgsubr
          -210 81 callgsubr
          47 hlineto
          20 162 callgsubr
          106 -151 231 callsubr
        </CharString>
        <CharString name="dvDA">
          -17 354 397 rmoveto
          151 69 83 -449 -83 267 -69 -93 vlineto
          -78 -28 -29 -62 hvcurveto
          -210 30 callgsubr
        </CharString>
        <CharString name="dvDA_mvR">
          246 callsubr
          47 hlineto
          20 162 callgsubr
          -90 -6 vlineto
          -77 -27 -72 callsubr
          -66 vlineto
          -61 29 callgsubr
          167 83 -132 hlineto
          -22 -6 5 21 hvcurveto
          35 168 callsubr
          82 355 -113 -87 hlineto
          68 callsubr
          endchar
        </CharString>
        <CharString name="dvDD">
          -17 138 -61 36 callgsubr
          -273 692 rmoveto
          -83 243 -69 -69 vlineto
          -84 callgsubr
          147 147 87 83 hlineto
          endchar
        </CharString>
        <CharString name="dvDDA">
          -17 336 449 callsubr
          -443 -83 243 -69 -69 vlineto
          -84 callgsubr
          endchar
        </CharString>
        <CharString name="dvDDH">
          19 156 -61 36 callgsubr
          84 458 rmoveto
          151 104 83 -479 -83 262 -69 -88 vlineto
          -45 callgsubr
          endchar
        </CharString>
        <CharString name="dvDDHA">
          19 355 297 callsubr
          104 83 -479 -83 262 -69 -88 vlineto
          -45 callgsubr
          endchar
        </CharString>
        <CharString name="dvDDH_DDHA">
          19 355 297 callsubr
          104 83 -479 -83 262 274 callgsubr
          -215 vlineto
          -36 16 -16 26 -3 vhcurveto
          -4 vlineto
          -26 -3 -16 -16 -33 vvcurveto
          -170 81 callgsubr
          127 207 callsubr
          37 vlineto
          71 -32 30 -83 vhcurveto
          -83 -83 56 hlineto
          22 403 callsubr
          -16 394 callgsubr
          -73 -83 callgsubr
          169 -92 callgsubr
          101 207 callsubr
          201 callsubr
        </CharString>
        <CharString name="dvDDH_R">
          19 158 -160 36 callgsubr
          82 557 65 callgsubr
        </CharString>
        <CharString name="dvDDH_RA">
          19 355 397 65 callgsubr
        </CharString>
        <CharString name="dvDDH_VA">
          19 267 98 rmoveto
          -96 vlineto
          -24 -8 -6 -21 vhcurveto
          -34 -83 callgsubr
          98 vlineto
          179 299 rmoveto
          151 104 83 -479 -83 262 274 callgsubr
          -199 vlineto
          -27 6 -21 13 -15 vhcurveto
          -143 vlineto
          -58 28 -32 77 vhcurveto
          52 hlineto
          19 12 269 callsubr
          -78 113 293 vlineto
          20 16 9 25 37 vvcurveto
          201 callsubr
        </CharString>
        <CharString name="dvDDH_YA">
          515 773 373 callsubr
          58 447 callgsubr
          46 vlineto
          62 -26 34 -77 vhcurveto
          -235 72 418 hlineto
          190 callgsubr
          -975 -83 262 -69 -88 hlineto
          -45 callgsubr
          366 150 callsubr
          -22 hvcurveto
          -31 444 callgsubr
          -144 302 callsubr
        </CharString>
        <CharString name="dvDDHxA">
          19 175 -159 8 callgsubr
          180 451 rmoveto
          151 104 83 -479 -83 262 -69 -88 vlineto
          -45 callgsubr
          endchar
        </CharString>
        <CharString name="dvDD_DDA">
          99 callgsubr
          -33 vlineto
          -53 25 -29 75 vhcurveto
          114 hlineto
          21 6 -6 -21 hvcurveto
          -23 -49 callsubr
          -75 hlineto
          -19 -6 5 21 hvcurveto
          11 -114 -24 vlineto
          -62 29 -30 77 vhcurveto
          143 hlineto
          77 29 30 62 hvcurveto
          50 vlineto
          61 -29 30 -77 vhcurveto
          -108 hlineto
          -21 -6 5 21 hvcurveto
          20 213 callsubr
        </CharString>
        <CharString name="dvDD_DDHA">
          99 callgsubr
          -170 396 callgsubr
          126 207 callsubr
          40 306 callgsubr
          -82 -82 55 hlineto
          22 403 callsubr
          -19 394 callgsubr
          -73 -83 callgsubr
          168 213 callsubr
        </CharString>
        <CharString name="dvDD_R">
          -17 138 -160 36 callgsubr
          -273 791 163 callgsubr
          59 -6 vhcurveto
          -84 -144 rlineto
          102 hlineto
          62 118 60 -118 rlineto
          101 hlineto
          -83 247 callsubr
          147 147 87 83 hlineto
          endchar
        </CharString>
        <CharString name="dvDD_RA">
          -17 336 449 callsubr
          -443 10 callgsubr
          59 -6 vhcurveto
          -84 -144 rlineto
          102 hlineto
          62 118 60 -118 rlineto
          101 hlineto
          -83 247 callsubr
          endchar
        </CharString>
        <CharString name="dvDD_VA">
          1 268 18 rmoveto
          331 callsubr
          40 -68 callgsubr
          55 hlineto
          14 11 1 3 10 hvcurveto
          94 312 rmoveto
          147 79 83 -461 -83 269 -69 -96 308 callgsubr
          -41 vlineto
          -62 29 -29 77 vhcurveto
          87 150 callsubr
          -19 hvcurveto
          -46 vlineto
          -18 -7 -5 -21 vhcurveto
          -64 hlineto
          -19 -6 5 21 hvcurveto
          23 -113 -55 vlineto
          -33 15 316 callgsubr
          -15 -15 -32 vvcurveto
          -50 vlineto
          -58 27 -32 78 vhcurveto
          86 hlineto
          19 12 3 33 callgsubr
          -84 113 403 vlineto
          61 -28 30 -78 vhcurveto
          -87 hlineto
          -21 -6 5 18 hvcurveto
          18 -92 callgsubr
          endchar
        </CharString>
        <CharString name="dvDD_YA">
          473 731 190 170 callsubr
          59 100 callsubr
          46 358 callgsubr
          -211 67 395 hlineto
          190 callgsubr
          -933 -83 243 -69 -69 hlineto
          -84 callgsubr
          325 -16 callsubr
          -32 -49 callsubr
          -100 -143 hlineto
          -71 37 -29 78 vhcurveto
          162 hlineto
          19 162 callgsubr
          -86 113 vlineto
          -1 548 rlineto
          70 hlineto
          endchar
        </CharString>
        <CharString name="dvDDxA">
          -17 147 -164 8 callgsubr
          189 460 rmoveto
          147 87 83 -443 -83 243 -69 -69 vlineto
          -84 callgsubr
          endchar
        </CharString>
        <CharString name="dvDH">
          -51 176 414 rmoveto
          -56 callgsubr
          -148 vlineto
          -33 16 -15 26 -3 vhcurveto
          26 callgsubr
          315 83 -276 -33 callgsubr
          endchar
        </CharString>
        <CharString name="dvDHA">
          95 538 45 callgsubr
          396 callsubr
          -353 -74 callsubr
          153 116 callsubr
        </CharString>
        <CharString name="dvDH_MA">
          526 784 415 rmoveto
          -110 133 110 hlineto
          -223 -359 rmoveto
          -23 -7 -5 -21 vhcurveto
          -43 -83 callgsubr
          117 168 callsubr
          71 hlineto
          405 299 rmoveto
          -609 -83 204 -133 -99 hlineto
          268 callsubr
          -129 -74 callsubr
          174 237 callsubr
          318 callgsubr
          154 110 -332 -15 callgsubr
        </CharString>
        <CharString name="dvDH_NA">
          482 551 170 callgsubr
          371 234 rmoveto
          -566 453 callsubr
          383 -69 -278 hlineto
          268 callsubr
          -193 -74 callsubr
          174 237 callsubr
          77 340 callgsubr
        </CharString>
        <CharString name="dvDH_N_YA">
          805 1063 195 170 callsubr
          162 384 callsubr
          67 287 callgsubr
          90 hlineto
          -512 -359 rmoveto
          -23 -7 -5 -22 353 callgsubr
          694 280 rmoveto
          -888 -83 476 hlineto
          36 4 -6 -27 hvcurveto
          -55 -49 callsubr
          -384 hlineto
          -77 -28 -30 -62 hvcurveto
          -147 -74 callsubr
          174 237 callsubr
          77 207 callsubr
          173 82 -173 vlineto
          -70 37 -30 78 vhcurveto
          124 callsubr
        </CharString>
        <CharString name="dvDH_R">
          -78 62 306 rmoveto
          -111 vlineto
          -62 30 -29 63 vhcurveto
          52 hlineto
          42 22 -117 -180 320 callsubr
          119 188 rlineto
          52 -169 vlineto
          -94 callgsubr
          75 vlineto
          23 406 callsubr
          99 -68 callsubr
          -135 vlineto
          17 callsubr
          endchar
        </CharString>
        <CharString name="dvDH_RA">
          95 538 631 104 callgsubr
          -135 vlineto
          -32 16 -16 26 -3 vhcurveto
          204 callsubr
        </CharString>
        <CharString name="dvDH_VA">
          302 742 45 callgsubr
          -385 -83 205 42 callsubr
          -59 hlineto
          268 callsubr
          -193 -74 callsubr
          174 hlineto
          25 14 7 15 7 hvcurveto
          -15 17 25 -7 32 hhcurveto
          238 callsubr
          67 vlineto
          endchar
        </CharString>
        <CharString name="dvDH_YA">
          415 673 200 callsubr
          -498 -83 86 186 callgsubr
          -99 -187 hlineto
          -53 callgsubr
          174 hlineto
          26 14 8 16 7 hvcurveto
          -16 19 29 -8 39 hhcurveto
          245 callsubr
        </CharString>
        <CharString name="dvD_BA">
          33 301 47 rmoveto
          -4 vlineto
          -115 120 rlineto
          78 hlineto
          15 11 2 3 11 hvcurveto
          -124 -149 rmoveto
          -21 -7 5 21 hvcurveto
          90 vlineto
          1 vlineto
          112 -117 rlineto
          138 378 337 callsubr
          -151 88 callgsubr
          -100 vlineto
          -58 28 -32 78 vhcurveto
          107 hlineto
          19 13 3 8 7 hvcurveto
          -83 114 452 -114 -53 vlineto
          -20 -6 -5 -21 vhcurveto
          -84 -90 callgsubr
          97 -54 callgsubr
          endchar
        </CharString>
        <CharString name="dvD_BHA">
          152 162 168 rmoveto
          70 436 callgsubr
          -34 -83 15 hlineto
          21 8 -5 -23 hvcurveto
          -265 105 73 196 83 -196 vlineto
          362 332 rmoveto
          168 68 83 -612 -83 430 -86 -93 261 callsubr
          -174 vlineto
          -71 5 callsubr
          47 hlineto
          20 162 callgsubr
          -143 113 323 -113 -79 vlineto
          -23 -8 -7 285 callgsubr
          145 -54 callgsubr
          endchar
        </CharString>
        <CharString name="dvD_B_RA">
          56 301 49 rmoveto
          0 vlineto
          -114 119 rlineto
          77 hlineto
          15 11 1 3 11 hvcurveto
          -152 -33 rmoveto
          3 vlineto
          117 -123 rlineto
          -89 432 callsubr
          250 352 337 callsubr
          -147 vlineto
          51 callsubr
          -33 vvcurveto
          -104 vlineto
          -58 28 -32 78 vhcurveto
          28 hlineto
          -113 -120 rlineto
          108 hlineto
          123 134 rlineto
          -86 114 457 -114 -53 vlineto
          -20 -6 -5 -21 vhcurveto
          -84 -90 callgsubr
          92 -54 callgsubr
          endchar
        </CharString>
        <CharString name="dvD_DA">
          4 358 297 callsubr
          86 83 -470 -83 271 -69 -112 vlineto
          -69 -32 -28 -63 hvcurveto
          -67 vlineto
          -32 15 -16 120 callgsubr
          -33 vvcurveto
          -71 vlineto
          -63 32 -28 69 vhcurveto
          88 325 callgsubr
          -74 -56 callsubr
          36 -68 callgsubr
          58 83 -58 -90 callgsubr
          31 4 callsubr
          endchar
        </CharString>
        <CharString name="dvD_DHA">
          217 149 89 rmoveto
          -60 callsubr
          51 83 -51 -90 callgsubr
          31 -92 callgsubr
          51 83 -77 hlineto
          204 callgsubr
          440 325 349 callsubr
          -201 vlineto
          175 callsubr
        </CharString>
        <CharString name="dvD_GA">
          244 callsubr
          -101 vlineto
          -16 -4 -4 -17 vhcurveto
          -20 -63 66 hlineto
          59 21 24 46 hvcurveto
          103 18 vlineto
          20 13 180 callsubr
          -227 104 413 295 callgsubr
        </CharString>
        <CharString name="dvD_GHA">
          217 589 385 349 callsubr
          -9 -127 vlineto
          204 callgsubr
          29 -68 callgsubr
          51 83 -51 -90 callgsubr
          31 -92 callgsubr
          101 -109 hlineto
          175 callsubr
        </CharString>
        <CharString name="dvD_G_RA">
          244 callsubr
          -74 vlineto
          -16 -4 -5 -17 vhcurveto
          -20 -63 66 hlineto
          59 21 24 47 hvcurveto
          76 18 vlineto
          20 13 180 callsubr
          -113 vlineto
          -224 -208 rlineto
          108 hlineto
          116 106 rlineto
          -74 104 475 295 callgsubr
        </CharString>
        <CharString name="dvD_MA">
          195 453 171 rmoveto
          -97 123 -114 -57 hlineto
          -23 -8 -6 -21 vhcurveto
          -33 -56 callsubr
          134 -54 callgsubr
          171 151 101 hlineto
          190 callgsubr
          -655 -83 258 -69 -93 hlineto
          124 callgsubr
          -163 vlineto
          -71 33 -29 369 callgsubr
          -137 114 89 97 -89 -91 callsubr
        </CharString>
        <CharString name="dvD_NA">
          246 callsubr
          56 hlineto
          20 13 180 callsubr
          -77 -79 vlineto
          -62 -33 -26 -65 hvcurveto
          -46 91 32 -54 callgsubr
          55 -108 104 448 -104 -87 hlineto
          -23 -8 -6 -21 vhcurveto
          -42 272 callsubr
        </CharString>
        <CharString name="dvD_R">
          -17 245 hmoveto
          445 callsubr
          hlineto
          -23 -8 -7 285 callgsubr
          155 -54 callgsubr
          170 227 callsubr
          -96 callgsubr
          -193 vlineto
          -58 26 -29 55 -4 vhcurveto
          343 callgsubr
          106 -170 231 callsubr
        </CharString>
        <CharString name="dvD_RA">
          184 callsubr
          148 callsubr
        </CharString>
        <CharString name="dvD_VA">
          0 232 145 rmoveto
          14 11 2 3 10 hvcurveto
          -102 vlineto
          331 callsubr
          70 vlineto
          23 6 5 22 vhcurveto
          198 252 rmoveto
          151 64 83 -466 -83 289 -69 -121 vlineto
          268 callsubr
          -168 vlineto
          -32 15 -16 120 callgsubr
          -32 vvcurveto
          -84 vlineto
          -58 27 293 callsubr
          -61 hlineto
          136 callsubr
          113 -54 callgsubr
          endchar
        </CharString>
        <CharString name="dvD_YA">
          104 353 185 rmoveto
          -22 -8 -7 -21 vhcurveto
          -137 38 callgsubr
          38 vlineto
          23 6 4 22 vhcurveto
          61 79 -61 hlineto
          -22 -6 4 22 hvcurveto
          32 168 callsubr
          86 137 80 hlineto
          190 callgsubr
          -544 -83 177 -63 -21 hlineto
          -69 -32 -27 -59 hvcurveto
          -62 vlineto
          -31 15 -15 129 callsubr
          -14 -31 vvcurveto
          -73 vlineto
          -59 32 -27 69 vhcurveto
          165 hlineto
          20 13 4 7 8 hvcurveto
          -89 -15 callgsubr
        </CharString>
        <CharString name="dvE">
          16 456 45 callgsubr
          -476 34 callgsubr
        </CharString>
        <CharString name="dvEcandra">
          16 294 670 rmoveto
          80 440 callsubr
          -24 vhcurveto
          -110 hlineto
          -23 -7 6 23 hvcurveto
          54 -97 319 callsubr
          304 -39 rmoveto
          -476 34 callgsubr
        </CharString>
        <CharString name="dvEight">
          24 callgsubr
        </CharString>
        <CharString name="dvEyelash">
          -104 336 382 rmoveto
          -88 432 callsubr
          52 -110 -65 vlineto
          -62 26 -34 78 vhcurveto
          122 hlineto
          -356 332 rmoveto
          -83 356 83 vlineto
          endchar
        </CharString>
        <CharString name="dvEyelash_HA">
          173 545 297 callsubr
          74 83 -639 -83 451 -69 -102 vlineto
          -82 -23 -32 -69 hvcurveto
          -20 -62 vlineto
          -21 -6 5 21 hvcurveto
          60 -110 -73 vlineto
          -62 26 -34 78 vhcurveto
          136 -3 hlineto
          -26 -3 -15 -15 -33 vvcurveto
          307 callgsubr
          78 vhcurveto
          211 83 -185 325 callsubr
          113 47 306 callgsubr
          -70 hlineto
          -22 -6 6 20 hvcurveto
          30 vlineto
          20 32 callsubr
          endchar
        </CharString>
        <CharString name="dvEyelash_YA">
          207 465 217 callgsubr
          190 callgsubr
          -667 -83 254 hlineto
          258 callgsubr
          -87 hlineto
          -21 -6 5 21 hvcurveto
          52 -110 -65 vlineto
          -62 26 -34 78 vhcurveto
          20 -121 hlineto
          -76 callgsubr
          69 vlineto
          endchar
        </CharString>
        <CharString name="dvFive">
          113 callgsubr
        </CharString>
        <CharString name="dvFour">
          192 callgsubr
        </CharString>
        <CharString name="dvG">
          -26 174 161 rmoveto
          -88 callgsubr
          207 470 rmoveto
          -436 -83 -96 callsubr
          65 vlineto
          endchar
        </CharString>
        <CharString name="dvGA">
          186 174 161 rmoveto
          -88 callgsubr
          417 470 rmoveto
          -646 -83 -96 callsubr
          93 232 callgsubr
        </CharString>
        <CharString name="dvGH">
          -163 363 456 callgsubr
          -383 -83 71 vlineto
          -4 -6 -3 -8 -12 vvcurveto
          -116 50 callsubr
          203 83 -178 71 callsubr
          26 6 6 26 vhcurveto
          endchar
        </CharString>
        <CharString name="dvGHA">
          47 305 -62 callgsubr
          -86 71 callsubr
          30 8 2 41 vhcurveto
          98 hlineto
          190 callgsubr
          -507 -83 73 hlineto
          393 callgsubr
          -114 50 callsubr
          106 -64 callsubr
        </CharString>
        <CharString name="dvGH_MA">
          453 712 210 callsubr
          -359 rmoveto
          -23 -8 350 callsubr
          72 hlineto
          -316 -188 221 callgsubr
          96 319 callgsubr
          82 -53 -90 callgsubr
          93 vlineto
          26 6 6 26 vhcurveto
          311 -116 -99 241 callsubr
          -147 vlineto
          -25 -51 callgsubr
          631 470 rmoveto
          -913 -83 71 hlineto
          -4 -6 -3 -8 -12 vvcurveto
          -116 50 callsubr
          103 hlineto
          29 20 8 15 11 hvcurveto
          -16 19 434 callsubr
          88 hlineto
          82 33 330 callsubr
          68 vlineto
          endchar
        </CharString>
        <CharString name="dvGH_NA">
          423 680 479 rmoveto
          -278 -96 callgsubr
          -194 vlineto
          -25 -51 callgsubr
          -77 71 callsubr
          26 6 6 26 vhcurveto
          490 hlineto
          -189 -359 rmoveto
          -23 -8 -5 -21 236 callgsubr
          371 234 rmoveto
          -882 -83 71 hlineto
          -4 -6 -3 -8 -12 vvcurveto
          -116 50 callsubr
          103 hlineto
          29 20 8 15 11 hvcurveto
          -16 19 434 callsubr
          140 callgsubr
          69 vlineto
          endchar
        </CharString>
        <CharString name="dvGH_R">
          -105 339 456 callgsubr
          -359 -83 73 vlineto
          393 callgsubr
          -105 vlineto
          17 callsubr
          -116 vlineto
          -62 30 -29 64 vhcurveto
          64 275 callgsubr
          119 188 rlineto
          52 -154 vlineto
          -94 callgsubr
          80 319 callgsubr
          83 -53 -90 callgsubr
          83 vlineto
          30 8 2 41 vhcurveto
          endchar
        </CharString>
        <CharString name="dvGH_RA">
          48 306 413 callgsubr
          -92 -90 callgsubr
          80 4 callsubr
          53 83 -53 -90 callgsubr
          84 vlineto
          30 8 2 41 vhcurveto
          99 hlineto
          190 callgsubr
          -508 -83 73 hlineto
          393 callgsubr
          -105 0 callsubr
          -3 -16 -15 -32 vvcurveto
          -115 vlineto
          -62 30 -29 64 vhcurveto
          46 hlineto
          -102 -158 425 callsubr
          548 68 vlineto
          endchar
        </CharString>
        <CharString name="dvGH_YA">
          344 613 -59 callgsubr
          -317 -166 rmoveto
          -188 vlineto
          -25 -51 callgsubr
          -77 71 callsubr
          26 6 6 26 vhcurveto
          193 186 callgsubr
          388 249 rmoveto
          -804 -83 71 hlineto
          -4 -6 -3 -8 -12 vvcurveto
          -116 50 callsubr
          103 hlineto
          30 20 8 16 11 hvcurveto
          -16 19 29 -8 39 hhcurveto
          163 hlineto
          18 162 callgsubr
          -90 -52 callgsubr
          57 vlineto
          endchar
        </CharString>
        <CharString name="dvG_BA">
          443 580 161 151 callsubr
          -507 hmoveto
          -88 callgsubr
          678 470 rmoveto
          -907 -83 -96 callsubr
          354 -223 vlineto
          -89 6 -32 146 callsubr
          -29 45 vhcurveto
          -61 101 rlineto
          74 78 -119 hlineto
          -78 -28 -29 -62 hvcurveto
          -210 302 callgsubr
        </CharString>
        <CharString name="dvG_BHA">
          592 174 161 rmoveto
          -88 callgsubr
          -229 387 rmoveto
          -96 callsubr
          58 83 -429 vlineto
          659 -442 53 callgsubr
        </CharString>
        <CharString name="dvG_BH_YA">
          909 174 161 rmoveto
          -88 callgsubr
          -229 387 rmoveto
          -96 callsubr
          58 83 -429 vlineto
          1169 -436 170 callsubr
          141 100 callsubr
          88 107 callgsubr
          -510 -359 51 callgsubr
          115 -92 callsubr
          63 hlineto
          692 301 rmoveto
          -499 417 callsubr
          -76 -49 callsubr
          -179 124 hlineto
          -58 callsubr
          -111 -98 260 callsubr
          -144 18 callsubr
          152 79 -152 vlineto
          -76 callgsubr
          69 vlineto
          endchar
        </CharString>
        <CharString name="dvG_DA">
          379 174 161 rmoveto
          -88 callgsubr
          537 236 452 callsubr
          -835 -83 257 -102 -82 vlineto
          173 callgsubr
          -173 vlineto
          -70 285 callsubr
          70 hvcurveto
          370 282 -69 -93 261 callsubr
          -210 30 callgsubr
        </CharString>
        <CharString name="dvG_DHA">
          473 174 161 rmoveto
          -88 callgsubr
          -229 387 rmoveto
          -96 callsubr
          59 83 -430 vlineto
          936 hmoveto
          396 callsubr
          -353 -74 callsubr
          153 116 callsubr
        </CharString>
        <CharString name="dvG_DH_VA">
          681 174 161 rmoveto
          -88 callgsubr
          -229 387 rmoveto
          -96 callsubr
          59 83 -430 vlineto
          1141 hmoveto
          -387 -83 205 -358 hlineto
          -106 callsubr
          -193 vlineto
          -4 callsubr
          -123 vlineto
          -62 32 -29 69 vhcurveto
          170 hlineto
          25 17 7 14 10 hvcurveto
          -14 17 24 -7 32 296 callgsubr
          68 vlineto
          endchar
        </CharString>
        <CharString name="dvG_DH_YA">
          793 174 161 rmoveto
          -88 callgsubr
          -229 387 rmoveto
          -96 callsubr
          59 83 -430 vlineto
          1071 -436 170 callsubr
          110 21 -41 callsubr
          90 hlineto
          190 callgsubr
          -499 -83 87 67 callgsubr
          -187 hlineto
          -4 callsubr
          -123 vlineto
          -62 32 -29 69 vhcurveto
          170 hlineto
          26 18 7 15 9 hvcurveto
          -15 19 28 -7 38 hhcurveto
          124 callsubr
        </CharString>
        <CharString name="dvG_GA">
          576 564 161 rmoveto
          -88 callgsubr
          -425 hmoveto
          -88 callgsubr
          807 470 rmoveto
          -1036 -83 -96 callsubr
          276 -102 -82 vlineto
          173 callgsubr
          -173 vlineto
          -70 285 callsubr
          70 hvcurveto
          370 93 232 callgsubr
        </CharString>
        <CharString name="dvG_GHA">
          440 703 -62 callgsubr
          -86 71 callsubr
          30 8 2 41 vhcurveto
          98 hlineto
          -529 -387 rmoveto
          -88 callgsubr
          676 470 rmoveto
          -905 -83 -96 callsubr
          100 vlineto
          393 callgsubr
          -114 50 callsubr
          106 -64 callsubr
        </CharString>
        <CharString name="dvG_JA">
          566 174 161 rmoveto
          -88 callgsubr
          801 470 rmoveto
          -1030 -83 -96 callsubr
          477 399 callgsubr
          vlineto
          -87 callsubr
          79 callgsubr
          vlineto
          endchar
        </CharString>
        <CharString name="dvG_LA">
          569 174 161 rmoveto
          -88 callgsubr
          799 470 rmoveto
          -1028 -83 -96 callsubr
          479 -69 -87 vlineto
          -32 -15 -15 -26 -3 hvcurveto
          -3 hlineto
          26 -3 -16 15 -32 hhcurveto
          -103 hlineto
          -67 -34 -29 -71 hvcurveto
          -288 vlineto
          -61 28 -30 77 55 callgsubr
          23 vhcurveto
          55 -397 -52 callgsubr
          64 hlineto
          endchar
        </CharString>
        <CharString name="dvG_MA">
          592 850 -15 callsubr
          -465 -188 rmoveto
          -88 callgsubr
          823 470 rmoveto
          -1052 -83 -96 callsubr
          288 -116 -98 vlineto
          235 callgsubr
        </CharString>
        <CharString name="dvG_NA">
          560 629 189 -100 callsubr
          -455 -236 rmoveto
          -88 callgsubr
          791 470 rmoveto
          -1020 -83 -96 callsubr
          467 -69 -277 vlineto
          234 callsubr
        </CharString>
        <CharString name="dvG_NNA">
          571 632 189 rmoveto
          -78 callgsubr
          359 84 vlineto
          -458 -387 rmoveto
          -88 callgsubr
          802 470 rmoveto
          -1031 -83 -96 callsubr
          84 -370 vlineto
          294 callsubr
        </CharString>
        <CharString name="dvG_N_YA">
          881 1139 121 callgsubr
          -453 -190 rmoveto
          -88 callgsubr
          1112 470 rmoveto
          -1341 -83 -96 callsubr
          558 236 callsubr
          -383 334 callgsubr
          -164 39 callsubr
        </CharString>
        <CharString name="dvG_R">
          37 270 -63 84 callsubr
        </CharString>
        <CharString name="dvG_RA">
          186 174 235 75 callgsubr
        </CharString>
        <CharString name="dvG_R_YA">
          493 751 -59 callgsubr
          -577 -313 84 callgsubr
          724 396 rmoveto
          -953 -83 257 -69 -82 hlineto
          321 callsubr
          170 vlineto
          -8 callsubr
          -148 hlineto
          -282 -297 rlineto
          118 hlineto
          176 185 rlineto
          -30 16 34 -14 53 hhcurveto
          459 callgsubr
          -91 callsubr
        </CharString>
        <CharString name="dvG_SA">
          568 826 352 rmoveto
          -95 hlineto
          -77 callsubr
          88 hlineto
          -652 -387 rmoveto
          -88 callgsubr
          799 470 rmoveto
          -1028 -83 -96 callsubr
          249 vlineto
          -107 callsubr
          278 -270 -15 callgsubr
        </CharString>
        <CharString name="dvG_VA">
          382 174 161 rmoveto
          -88 callgsubr
          613 470 rmoveto
          -842 -83 -96 callsubr
          289 131 callgsubr
        </CharString>
        <CharString name="dvG_YA">
          494 752 -59 callgsubr
          -578 -387 rmoveto
          -88 callgsubr
          725 470 rmoveto
          -954 -83 -96 callsubr
          171 vlineto
          -8 callsubr
          -204 -19 callsubr
        </CharString>
        <CharString name="dvGx">
          -26 140 -106 8 callgsubr
          34 162 rmoveto
          -88 callgsubr
          207 470 rmoveto
          -436 -83 -96 callsubr
          65 vlineto
          endchar
        </CharString>
        <CharString name="dvGxA">
          186 141 -101 8 callgsubr
          33 157 rmoveto
          -88 callgsubr
          417 470 rmoveto
          -646 -83 -96 callsubr
          93 232 callgsubr
        </CharString>
        <CharString name="dvGx_R">
          37 382 -126 8 callgsubr
          -112 -42 84 callsubr
        </CharString>
        <CharString name="dvGx_RA">
          186 354 -152 8 callgsubr
          -180 282 75 callgsubr
        </CharString>
        <CharString name="dvH">
          -2 169 -61 36 callgsubr
          -304 692 rmoveto
          -83 276 -69 -102 vlineto
          -77 -29 -29 -62 hvcurveto
          -62 3 callsubr
          181 151 74 83 hlineto
          endchar
        </CharString>
        <CharString name="dvHA">
          -2 370 297 callsubr
          74 83 -464 -83 276 -69 -102 vlineto
          -77 -29 -29 -62 hvcurveto
          -62 3 callsubr
          endchar
        </CharString>
        <CharString name="dvHA_mU">
          -2 370 297 callsubr
          74 83 -464 -83 276 -69 -102 vlineto
          205 callsubr
          -121 vlineto
          -70 28 -30 87 vhcurveto
          70 404 callgsubr
          -58 hlineto
          -24 -15 7 19 -12 hvcurveto
          -23 38 rlineto
          -134 hlineto
          34 -58 rlineto
          -69 40 35 -20 88 hhcurveto
          111 hlineto
          68 34 -31 callsubr
          52 167 callsubr
          -86 74 callsubr
          endchar
        </CharString>
        <CharString name="dvHA_mUU">
          4 422 -4 rmoveto
          63 -41 -25 24 -86 hhcurveto
          -81 74 callsubr
          181 151 74 83 -464 -83 276 -69 -102 hlineto
          205 callsubr
          -125 vlineto
          -43 10 -26 27 -12 vhcurveto
          -2 -9 -1 -11 -12 vvcurveto
          -52 vlineto
          -71 30 -29 68 vhcurveto
          94 83 -52 313 callsubr
          42 hlineto
          23 12 -10 -19 12 hvcurveto
          87 -139 rlineto
          126 hlineto
          endchar
        </CharString>
        <CharString name="dvHA_mvR">
          -9 391 callgsubr
          74 83 -456 341 callgsubr
          -57 vlineto
          17 callsubr
          -127 vlineto
          -23 callgsubr
          212 74 -186 -90 callgsubr
          126 -68 callgsubr
          48 hlineto
          11 4 -4 -8 hvcurveto
          -20 -36 -27 -36 vvcurveto
          -33 23 -15 43 vhcurveto
          78 60 -40 hlineto
          -11 -4 4 8 hvcurveto
          21 38 30 39 vvcurveto
          36 -25 14 -44 vhcurveto
          -85 hlineto
          -21 -6 6 20 hvcurveto
          25 vlineto
          19 463 callsubr
          endchar
        </CharString>
        <CharString name="dvH_LA">
          140 391 callgsubr
          223 83 -605 223 callgsubr
          205 74 -179 -90 callgsubr
          239 -68 callgsubr
          230 hlineto
          21 8 -5 -23 hvcurveto
          -13 -46 vlineto
          -23 -9 -9 -14 -6 hvcurveto
          -1 hlineto
          16 -5 -13 7 -29 hhcurveto
          -31 hlineto
          -49 -26 -20 -49 hvcurveto
          -71 vlineto
          -49 26 -21 49 vhcurveto
          61 60 -48 hlineto
          -19 -4 4 19 hvcurveto
          46 vlineto
          19 4 4 19 vhcurveto
          9 hlineto
          19 4 -4 -19 hvcurveto
          -34 65 34 vlineto
          19 4 4 19 vhcurveto
          30 -151 73 235 hlineto
          55 -26 27 -62 vhcurveto
          -244 214 callsubr
        </CharString>
        <CharString name="dvH_MA">
          202 464 255 rmoveto
          -92 hlineto
          40 -8 -27 20 -55 hhcurveto
          -93 96 callgsubr
          181 151 94 hlineto
          348 callgsubr
          -665 -83 276 -69 -102 hlineto
          -77 -29 -29 -62 hvcurveto
          -62 62 callsubr
          -75 113 53 89 -183 219 callsubr
        </CharString>
        <CharString name="dvH_NA">
          30 391 callgsubr
          108 83 -490 222 callsubr
          200 74 -174 -90 callgsubr
          143 -68 callgsubr
          133 hlineto
          21 8 -5 -23 hvcurveto
          -13 -68 vlineto
          -56 -28 -23 -54 hvcurveto
          -26 77 20 vlineto
          22 5 5 23 vhcurveto
          47 -63 72 142 hlineto
          54 -27 28 -61 vhcurveto
          -146 hlineto
          -21 -6 5 20 hvcurveto
          14 vlineto
          19 463 callsubr
          endchar
        </CharString>
        <CharString name="dvH_NNA">
          89 309 183 rmoveto
          -12 -2 -5 -12 vhcurveto
          -12 hlineto
          -12 -2 5 12 hvcurveto
          90 40 vlineto
          53 128 rmoveto
          147 167 83 -549 222 callsubr
          205 74 -179 -90 callgsubr
          143 -68 callgsubr
          13 -97 hlineto
          -37 20 -24 41 vhcurveto
          52 hlineto
          41 19 24 37 hvcurveto
          97 13 vlineto
          21 403 callsubr
          -56 74 66 vlineto
          54 -27 28 -61 vhcurveto
          -213 hlineto
          -21 -6 5 20 hvcurveto
          14 vlineto
          19 463 callsubr
          endchar
        </CharString>
        <CharString name="dvH_R">
          44 189 -61 36 callgsubr
          58 462 49 callgsubr
        </CharString>
        <CharString name="dvH_RA">
          44 362 401 49 callgsubr
        </CharString>
        <CharString name="dvH_VA">
          82 391 callgsubr
          165 83 -547 223 callgsubr
          196 74 -170 -90 callgsubr
          239 -68 callgsubr
          170 195 callgsubr
          -111 vlineto
          -73 callsubr
          -60 hlineto
          -19 -4 4 19 hvcurveto
          17 vlineto
          19 4 4 19 vhcurveto
          45 58 -57 hlineto
          -50 -26 -20 -49 hvcurveto
          -42 vlineto
          -49 26 -20 50 vhcurveto
          74 hlineto
          14 11 3 6 7 hvcurveto
          -46 74 254 vlineto
          55 -27 27 -61 vhcurveto
          -184 214 callsubr
        </CharString>
        <CharString name="dvH_YA">
          209 463 232 rmoveto
          -73 callsubr
          -73 hlineto
          6 9 3 12 13 vvcurveto
          10 vlineto
          56 -24 31 -67 vhcurveto
          -85 hlineto
          -21 -6 5 20 hvcurveto
          22 vlineto
          19 463 callsubr
          173 147 101 hlineto
          348 callgsubr
          -664 372 callsubr
          hlineto
          124 callgsubr
          -53 152 callsubr
          -130 vlineto
          -23 callgsubr
          205 74 -179 -90 callgsubr
          135 -68 callgsubr
          66 hlineto
          20 5 -5 -20 hvcurveto
          -17 vlineto
          -20 -5 -5 -20 vhcurveto
          -39 -64 215 hlineto
          14 11 3 6 7 hvcurveto
          -143 112 -10 callgsubr
        </CharString>
        <CharString name="dvI">
          -26 341 289 callgsubr
          73 83 -434 13 callsubr
          endchar
        </CharString>
        <CharString name="dvII">
          -26 341 289 callgsubr
          73 83 -73 55 -92 callsubr
          42 78 -77 -96 callgsubr
          -68 -248 13 callsubr
          endchar
        </CharString>
        <CharString name="dvII_Anusvara">
          -26 341 751 rmoveto
          21 6 5 22 vhcurveto
          50 78 -86 hlineto
          268 callsubr
          -133 -248 13 callsubr
          167 147 73 83 -73 hlineto
          33 113 rmoveto
          -84 79 84 vlineto
          endchar
        </CharString>
        <CharString name="dvJ">
          -36 470 141 callgsubr
        </CharString>
        <CharString name="dvJA">
          175 615 631 138 callgsubr
        </CharString>
        <CharString name="dvJH">
          -19 346 289 callgsubr
          143 83 -509 137 callgsubr
          133 79 -309 432 callsubr
          33 -92 callsubr
          endchar
        </CharString>
        <CharString name="dvJHA">
          191 450 316 rmoveto
          -270 hlineto
          266 callsubr
          104 hlineto
          348 callgsubr
          -660 -83 261 -6 callgsubr
          93 -237 -93 callgsubr
          hlineto
          endchar
        </CharString>
        <CharString name="dvJH_MA">
          587 845 -15 callsubr
          -463 -33 rmoveto
          266 callsubr
          297 -116 -98 241 callsubr
          -25 vlineto
          597 315 rmoveto
          -1056 -83 252 -6 callgsubr
          83 -42 291 callgsubr
        </CharString>
        <CharString name="dvJH_NA">
          564 822 479 rmoveto
          355 callsubr
          -72 -259 vlineto
          266 callsubr
          476 hlineto
          -189 -359 144 callsubr
          -1024 -83 252 -6 callgsubr
          83 -59 hlineto
          111 callsubr
        </CharString>
        <CharString name="dvJH_R">
          89 347 -93 rmoveto
          192 197 rlineto
          111 vlineto
          -313 -308 rlineto
          120 494 rmoveto
          147 193 83 -559 137 callgsubr
          183 79 -359 432 callsubr
          33 -92 callsubr
          endchar
        </CharString>
        <CharString name="dvJH_RA">
          191 450 336 rmoveto
          -270 hlineto
          -21 -7 5 20 hvcurveto
          28 -92 callsubr
          166 133 104 hlineto
          348 callgsubr
          -660 -83 261 -62 -87 hlineto
          -78 -28 -27 -57 hvcurveto
          -53 vlineto
          -58 28 -27 78 vhcurveto
          72 150 callsubr
          -20 hvcurveto
          -49 vlineto
          -21 -7 -4 -21 vhcurveto
          -63 43 -114 -208 114 93 221 callsubr
          27 57 hvcurveto
          67 vlineto
          7 -1 7 -1 6 vhcurveto
          93 -81 hlineto
          -248 -237 rlineto
          111 hlineto
          137 137 rlineto
          -83 -91 callsubr
        </CharString>
        <CharString name="dvJH_YA">
          489 747 -59 callgsubr
          -317 -166 rmoveto
          -66 -259 vlineto
          266 callsubr
          180 349 callgsubr
          -958 -83 252 -6 callgsubr
          83 -59 -19 callsubr
        </CharString>
        <CharString name="dvJ_BA">
          445 578 161 2 callgsubr
          72 -112 rcurveline
          207 470 rmoveto
          -905 -83 723 225 callsubr
          -422 216 callsubr
          84 -9 vlineto
          -210 vlineto
          -70 34 -30 68 282 callsubr
          -15 callgsubr
        </CharString>
        <CharString name="dvJ_DA">
          378 749 297 callsubr
          73 83 -842 -83 656 -69 -396 100 callgsubr
          -9 vlineto
          -210 81 callgsubr
          47 325 callgsubr
          -33 -83 callgsubr
          180 428 callsubr
        </CharString>
        <CharString name="dvJ_DDA">
          372 725 449 callsubr
          -832 -83 631 -69 -371 100 callgsubr
          -9 vlineto
          -76 vlineto
          -62 28 -29 78 vhcurveto
          57 -16 callsubr
          -90 vlineto
          -22 -6 -5 -21 vhcurveto
          -34 hlineto
          -19 -6 381 callgsubr
          77 29 33 callsubr
          117 vlineto
          62 -29 29 -77 vhcurveto
          -57 432 callsubr
          50 -92 callsubr
          endchar
        </CharString>
        <CharString name="dvJ_JA">
          569 1009 45 callgsubr
          -1029 -83 847 -69 -193 -290 hlineto
          -34 callgsubr
          -310 100 callgsubr
          -219 164 callsubr
        </CharString>
        <CharString name="dvJ_JHA">
          589 848 316 rmoveto
          -270 hlineto
          266 callsubr
          104 hlineto
          348 callgsubr
          -1049 -83 650 -69 -390 216 callsubr
          84 -9 vlineto
          -55 callsubr
          93 -237 -93 callgsubr
          hlineto
          endchar
        </CharString>
        <CharString name="dvJ_J_NYA">
          554 980 45 callgsubr
          -1000 -83 817 -82 -557 -277 hlineto
          -78 callgsubr
          403 callgsubr
          -288 -70 callgsubr
          205 225 vlineto
          176 callgsubr
          77 28 29 62 hvcurveto
          223 vlineto
          12 -2 7 -5 6 vhcurveto
          86 -383 -52 callgsubr
          69 hlineto
          endchar
        </CharString>
        <CharString name="dvJ_J_VA">
          773 1213 45 callgsubr
          -1233 -83 1051 280 callgsubr
          181 130 callgsubr
          -357 -290 hlineto
          259 callsubr
          290 -310 100 callgsubr
          -219 81 callgsubr
          81 157 callgsubr
          219 81 vlineto
          -2 -9 -1 -10 -9 vvcurveto
          -191 367 callgsubr
          548 68 vlineto
          endchar
        </CharString>
        <CharString name="dvJ_J_YA">
          881 1139 -57 callsubr
          178 20 vlineto
          77 26 33 62 hvcurveto
          54 vlineto
          13 -3 11 -5 8 450 callgsubr
          -1341 -83 933 hlineto
          32 4 -4 -23 hvcurveto
          -46 -49 callsubr
          -293 -260 hlineto
          259 callsubr
          260 -305 -260 vlineto
          -78 callgsubr
          260 -113 -271 -70 callgsubr
          189 79 -189 81 callgsubr
          80 432 callgsubr
          189 79 -189 vlineto
          -23 callgsubr
          124 callsubr
        </CharString>
        <CharString name="dvJ_KA">
          581 1015 456 callgsubr
          -1035 -83 662 -358 vlineto
          -103 callgsubr
          -362 216 callsubr
          84 -9 vlineto
          -210 15 callgsubr
        </CharString>
        <CharString name="dvJ_MA">
          594 852 432 rmoveto
          -97 116 97 hlineto
          -211 105 callsubr
          393 282 rmoveto
          -1054 -83 661 -116 -401 -243 hlineto
          -78 callgsubr
          243 -113 -254 -70 callgsubr
          171 84 257 callsubr
        </CharString>
        <CharString name="dvJ_NA">
          562 631 189 117 callsubr
          371 234 rmoveto
          -1022 -83 840 -69 -580 216 callsubr
          84 -9 vlineto
          -210 vlineto
          -70 33 -30 82 vhcurveto
          78 hlineto
          82 45 callsubr
        </CharString>
        <CharString name="dvJ_NY">
          -39 68 383 rmoveto
          142 hlineto
          176 callgsubr
          78 28 29 62 hvcurveto
          223 vlineto
          11 31 callgsubr
          137 83 -413 hlineto
          -88 165 rmoveto
          -83 501 83 vlineto
          endchar
        </CharString>
        <CharString name="dvJ_NYA">
          172 612 45 callgsubr
          -632 -83 449 -82 -361 -83 142 hlineto
          176 callgsubr
          78 28 29 62 hvcurveto
          223 vlineto
          11 31 callgsubr
          85 -383 -52 callgsubr
          69 hlineto
          endchar
        </CharString>
        <CharString name="dvJ_NY_YA">
          484 742 -57 callsubr
          145 100 callsubr
          84 135 callgsubr
          190 callgsubr
          -944 -83 532 156 callsubr
          -72 -4 callgsubr
          -457 -83 142 -16 callsubr
          -160 -49 callsubr
          -52 74 -114 -223 114 71 87 309 callgsubr
          174 vlineto
          11 31 callgsubr
          81 -156 hlineto
          -23 callgsubr
          163 -64 callsubr
        </CharString>
        <CharString name="dvJ_R">
          93 callsubr
          endchar
        </CharString>
        <CharString name="dvJ_RA">
          175 615 631 99 callsubr
        </CharString>
        <CharString name="dvJ_TA">
          400 840 45 callgsubr
          -860 -83 678 -69 -418 216 callsubr
          84 -9 vlineto
          -71 callgsubr
          80 448 callgsubr
          hlineto
          endchar
        </CharString>
        <CharString name="dvJ_TTA">
          370 744 297 callsubr
          66 83 -830 -83 650 -69 -390 100 callgsubr
          -9 vlineto
          -288 81 callgsubr
          81 157 callgsubr
          114 455 callgsubr
          259 callsubr
          258 428 callsubr
        </CharString>
        <CharString name="dvJ_VA">
          384 824 45 callgsubr
          -844 -83 662 169 callsubr
          -362 216 callsubr
          84 -9 vlineto
          -102 callsubr
          548 68 vlineto
          endchar
        </CharString>
        <CharString name="dvJ_YA">
          492 750 195 170 callsubr
          178 20 vlineto
          78 26 33 62 hvcurveto
          54 vlineto
          13 -3 11 -5 8 450 callgsubr
          -952 -83 544 hlineto
          32 4 -4 -23 hvcurveto
          -46 -49 callsubr
          -293 -260 hlineto
          -78 callgsubr
          260 -113 -271 -70 callgsubr
          189 80 -189 vlineto
          -76 callgsubr
          69 vlineto
          endchar
        </CharString>
        <CharString name="dvJx">
          -36 148 hmoveto
          -105 95 105 vlineto
          227 141 callgsubr
        </CharString>
        <CharString name="dvJxA">
          175 151 -100 8 callgsubr
          464 626 138 callgsubr
        </CharString>
        <CharString name="dvJx_JxA">
          569 149 -97 8 callgsubr
          401 -105 8 callgsubr
          459 623 rmoveto
          -1029 -83 847 -69 -193 -290 hlineto
          -34 callgsubr
          -310 100 callgsubr
          -219 164 callsubr
        </CharString>
        <CharString name="dvJx_R">
          93 callsubr
          -129 -190 420 callgsubr
        </CharString>
        <CharString name="dvJx_RA">
          175 361 -146 8 callgsubr
          254 672 99 callsubr
        </CharString>
        <CharString name="dvJx_YA">
          492 148 -100 8 callgsubr
          602 190 170 callsubr
          178 20 vlineto
          78 26 33 62 hvcurveto
          54 vlineto
          13 -3 11 -5 8 450 callgsubr
          -952 -83 544 hlineto
          32 4 -4 -23 hvcurveto
          -46 -49 callsubr
          -293 -260 hlineto
          -78 callgsubr
          260 -113 -271 -70 callgsubr
          189 80 -189 vlineto
          -76 callgsubr
          69 vlineto
          endchar
        </CharString>
        <CharString name="dvK">
          -6 499 456 callgsubr
          -519 -83 259 -358 vlineto
          -107 callgsubr
          7 callsubr
          117 82 -105 39 callgsubr
          vlineto
          endchar
        </CharString>
        <CharString name="dvKA">
          172 612 456 callgsubr
          -632 -83 259 -358 vlineto
          -23 -8 -6 -21 vhcurveto
          -35 hlineto
          -21 -7 5 23 hvcurveto
          186 vlineto
          21 7 5 21 vhcurveto
          24 78 -59 hlineto
          -78 -28 -29 -62 hvcurveto
          -210 vlineto
          109 callgsubr
        </CharString>
        <CharString name="dvKH">
          114 486 367 rmoveto
          322 callsubr
          142 83 -105 -83 callgsubr
          -506 419 rmoveto
          -83 206 vlineto
          -10 callsubr
          294 83 hlineto
          endchar
        </CharString>
        <CharString name="dvKHA">
          317 757 45 callgsubr
          -777 -90 callsubr
          252 -332 hlineto
          -69 callsubr
          -116 111 -10 callgsubr
        </CharString>
        <CharString name="dvKH_KHA">
          849 1289 45 callgsubr
          -1309 -90 callsubr
          393 hlineto
          26 7 -6 -26 hvcurveto
          -162 vlineto
          -26 -7 -6 -26 vhcurveto
          -27 335 callgsubr
          -255 hlineto
          -69 callsubr
          -21 vlineto
          -66 38 -29 86 vhcurveto
          250 84 -228 hlineto
          -26 -6 7 26 hvcurveto
          122 66 vlineto
          76 31 29 66 hvcurveto
          188 286 callsubr
          253 415 callsubr
          -31 161 callsubr
        </CharString>
        <CharString name="dvKH_MA">
          710 979 432 -27 callsubr
        </CharString>
        <CharString name="dvKH_NA">
          702 771 189 rmoveto
          -23 -7 -5 -21 61 callgsubr
          53 hlineto
          371 234 rmoveto
          -1162 -90 callsubr
          636 -69 -278 -96 callgsubr
          -172 vlineto
          52 callgsubr
          163 -47 callgsubr
          -187 vlineto
          320 callgsubr
          65 hlineto
          24 15 5 11 10 hvcurveto
          -27 16 33 -12 52 328 callsubr
        </CharString>
        <CharString name="dvKH_R">
          101 callgsubr
          167 188 rmoveto
          47 callgsubr
          130 197 rlineto
          45 vlineto
          endchar
        </CharString>
        <CharString name="dvKH_RA">
          317 757 631 24 callsubr
        </CharString>
        <CharString name="dvKH_SHA">
          709 158 239 rmoveto
          66 hlineto
          -44 callgsubr
          211 83 -556 -83 206 hlineto
          26 6 -6 -26 hvcurveto
          -162 434 callgsubr
          -28 335 callgsubr
          -376 hlineto
          162 callsubr
          251 84 -229 360 callgsubr
          526 517 rmoveto
          -78 215 callgsubr
          114 243 callgsubr
          18 vhcurveto
          31 -16 callsubr
          -157 444 callsubr
          53 -114 -172 205 callgsubr
          22 78 -55 139 callsubr
          98 hlineto
          77 29 33 callsubr
          100 -114 -86 314 callgsubr
          148 73 vlineto
          85 39 103 callgsubr
        </CharString>
</ttFont>
